<?xml version="1.0" encoding="UTF-8" standalone="no"?>
<svg id="svg2" xmlns:rdf="http://www.w3.org/1999/02/22-rdf-syntax-ns#" xmlns="http://www.w3.org/2000/svg" height="973pt" width="379pt" version="1.1" xmlns:cc="http://creativecommons.org/ns#" xmlns:dc="http://purl.org/dc/elements/1.1/" viewBox="0 0 379 973">
<path id="path4" d="m203.56 0h13.92c43.47 3.55 87.41 5.56 130.02 15.48 5.18 1.39 12.48 2.77 12.45 9.71 9.53 39.03 7.37 80.25-0.31 119.46-8.82 48.53-4.71 98.43 2.85 146.86 10.18 53.06 12.12 107.23 10.16 161.12-3.61 45.56-6.14 91.6-1.44 137.17 4.31 27.46 6.55 55.26 7.79 82.9v113.64c-2.44 49.71-2.33 100.08-12.64 149.02-2.46 10-5.51 24.04-17.36 26.66-8.22-2.39-16.23-6.11-25.09-5.09-67.15 0.64-133.48 12.88-200.49 16.07h-27.66c-20.93-1.59-13.84-29.05-14.57-42.73 6.32-74.23 18.1-148.13 34.71-220.66-1.6-96.06-3.56-192.16-5.25-288.23-1.33-31.44-1.62-63.16 3.47-94.3 1.25-8.12 0.18-16.67-1.89-24.45-31.72-3.18-53.77 32.65-86.42 26.97-8.5-1.96-11.9-11.28-14.92-18.46-9.37-26.19-8.68-54.45-10.89-81.77v-41.66c2.79-11.11-0.33-22.81 1.41-34.09 34.1-6.52 62.79-28.39 91.2-47 41.58-30.23 81.8-64.23 110.95-106.62m27.13 28.25c-13.28 9.68-17.33 29.23-21.34 44.57 26.77-9.04 57.3-17.18 76.5-38.83-16.5-6.34-37.1-6.02-55.16-5.74m82.6 1.06c-14.87 4.31-15.34 24.72-29.51 30.48-34.59 15.75-68.94 32.18-103.74 47.52 0.04 0.65 0.1 1.93 0.13 2.57 48.48 2.3 91.74-26.74 140.07-24.61 13.27 11.67 2.74-20.56 4.44-24.85-19.34-2.05-4.34-24.42-11.39-31.11m-21.04 72.08c-87.54 19.51-166.67 63.64-244.27 107.01 0.15 7.81-0.91 16.12 0.87 23.67 22.78-8.74 46.38-15.81 68.12-27.08 32.4-23.28 60.32-61.59 103.38-63.6 25.07-5.78 48.64-17.52 69.41-32.57 1.93-1.36 8.31-8.11 2.49-7.43m-164.81 14.97c-24.68 14.73-54.97 18.74-77.18 37.89-8.16 6.59-13.29 16.57-13.95 27.02-2.31 9.07 12.24 3.61 16.84 4.12 37.55-20.99 76.4-41.64 112.86-63.41-6.23-1.4-17.15 2.39-24.54 3.45-7.84 3.9-7.82-10.69-14.03-9.07m197.18 0.11c-38.77 11.17-75.52 28.63-111.57 46.57-8.83 5.83-20.62 9.44-26.84 18.02 35.27-10.2 72.68-12.77 106.74-27.11 16.2-7.41 34.79-18.51 36.9-38.01-1.31 0.13-3.92 0.4-5.23 0.53m-16.05 53c-77.09 9.12-155.1 26.63-223.45 64.66-18.59 10.6-43.67 26.73-41.26 50.68 59.28-12.6 111.9-45.3 168.78-65.23 37.33-7.8 74.74-22.02 104.35-46.46 5.83-5.32-5.01-4.32-8.42-3.65m4.88 24.84c-17.41 9.85-38.41 14.53-53.4 27.87 10.94 4.94 28.65 2.21 41.76 5.78 3.86 6.46 4.84 19.11-5.29 19.76-29 9.05-53.69 27.51-81.86 38.54 29.73 1.17 60.12-9.2 90.2-5.35 8.93 3.58 5.03 15.57-1.08 19.98-33.86 26.55-74.02 43.1-113.08 60.37 45.92 0.3 88.61-23.19 133.91-29.87 1.21-44.33-12.85-88.12-8.62-132.51 1.25-3.92 0.4-5.44-2.54-4.57m-64.79 46.2c-30.25 5.61-63.68 11.46-87.76 31.47-3.19 27.64 1.7 56.01-0.07 83.92 37.17-15.91 75.23-31.05 110.15-51.85 2.6-2.5 7.9-4.71 6.75-8.87-36.18 0.59-72.34 6.5-108.28 9.34-1.18-25.84 28.19-34.72 48.17-41.9 13.06-6.31 32.57-5.76 40.13-19.93 1.07-4.78-7.26-1.84-9.09-2.18m63.93 107.96c-50.52 9.6-100.94 21.74-148.5 41.6-7.26 4.08-18.02 8.28-15.7 18.57 2.97 24.41 2.65 49.58 8.98 73.42 7.6 0.92 14.22-3.11 21.06-5.63 34.12-13.9 68.33-27.62 102.46-41.47 5.79-8.55 17.66-11.23 23.95-18.02-45.13 0.29-84.68 29.28-130.16 26-7.32-3.46-1.72-11.13 1.99-15.31 34.11-41.19 87.8-55.64 135.85-73.9 2.99-0.9 8.1-8.94 0.07-5.26m3.8 18.87c-32.09 12.45-64.7 25.68-91.72 47.46-4.47 2.09 0.93 5.51 3.67 2.72 30.88-5.9 62.12-12.22 91.65-22.93-2.6-6.92 5.46-26.36-3.6-27.25m-15.72 77.15c-42.97 10.96-81.94 33.09-123 49.26-2.42 3.56 3.18 5.52 5.62 6.9 45-14.45 91.61-31.36 137.85-38.56 7.18-12.64-9.55-22.46-20.47-17.6m-9.07 36.06c-43.94 3.14-83.07 26.21-126.4 32.53-11.77 0.74-9.24 15.55-6.09 22.89 49.69-6.57 94.54-30.32 137.72-54.32 0.13-2.42-1.61-2.78-5.23-1.1m33.84 1.72c-50.27 31.08-107.41 49.81-160.36 76.11-3.32 9.88 8.42 6.2 13.32 6.11 48.86-3.42 96.26-16.48 144.1-26.09 0.73-18.18 6.41-40.71 2.94-56.13m-30.83 74.3c-45.23 6.58-89.75 19.08-135.29 22.94 0.43 11.86 0.12 25.08 1.67 36.4 44.36-13.39 88.1-29.98 129.13-51.7 3.86-1.73 16.69-10.24 4.49-7.64m25.72 10.75c-46.73 18.03-92.98 37.38-138.71 57.8 5.79 3.62 13.29 1.49 19.66 1.25 41.15-6.41 82.14-15.19 122.24-26.05-1.01-8.94 2.77-27.83-3.19-33m-7.74 52.19c-50.49 8.41-101.96 14.26-150.85 29.56-1.11 12.61-1.67 28.22 0.27 40.9 45.02-17.54 89.92-36.09 134.86-54.03 5.27-8.12 16.03-8.21 22.37-15.11-1.2-2.58-4.29-2.13-6.65-1.32m10.94 20.95c-33.47 9.99-65.81 24.04-96.75 40.27-2.67 2.37-8.14 3.24-8.77 7.17 24.9-7.14 50.1-15.48 76.26-15.86 13.12 1.31 12.42 19.76 1.61 23.93-43.69 22.51-92.99 30.77-137.9 50.28 1.22 5.2 11.52-0.06 15.46 1.35 53.01-6.58 106.08-14.12 158.14-26.11 1.86-25.03-1.74-50.18-0.57-75.31 2.94-6.33-3.57-7.37-7.48-5.72m-99.09 60.85c-21.47 4.38-42.88 9.07-64.56 12.32-4.36 1.07-5.14 6.31-5.63 10.08 24.29-7.76 50.58-9.52 73.67-21.02 0.61-2.47-2.06-1.47-3.48-1.38m86.87 44.01c-23.79 4.29-47.78 7.59-71.68 11.23-6.34 4.85-3.8-4.1-7.53-3.38-25 8.24-51.12 13.3-76.88 17.88-8.69 12.98-14.59 30.89-10.92 45.83 32.84-2.36 68.7-8.96 93.8-31.84 25.88-11.02 51.65-22.31 77.5-33.36 5.33-1.98-0.97-7.13-4.29-6.36m13.02 38.02c-58.64 21.01-117.17 42.44-175.99 62.97-1.1 4.36 8.58 1.94 10.63 2.81 53.75-3.4 108.27-11.96 158.22-32.88 14.58-3.63 11.92-26.2 7.14-32.9m2.39 52.94c-61 27.87-128.47 38.04-195.09 39.04-4.55 18.93-7.56 38.32-11.45 57.42 3.91 4.07 8.02 8.19 12.84 11.22 23.41-13.54 46.53-27.73 70.08-41 5.1 2.83-0.63 12.69 2.89 16.98 10.4-2.74 19.98-9.5 30.73-10.79-1.98 18.3-30.06 12.36-36.53 26.81 37.3 0.56 74.47-3.84 111.3-9.41 21.24-0.03 7.09-30.66 9.45-42.54-11.74 10.46-28.45 14.06-42.42 21.63-5.86 2.32-9.65-8.13-2.57-9.65 19.22-16.93 54.34-29.31 50.77-59.71z"/>
</svg>
