<?xml version="1.0" encoding="UTF-8" standalone="no"?>
<svg id="svg2" xmlns:rdf="http://www.w3.org/1999/02/22-rdf-syntax-ns#" xmlns="http://www.w3.org/2000/svg" height="979pt" width="668pt" version="1.1" xmlns:cc="http://creativecommons.org/ns#" xmlns:dc="http://purl.org/dc/elements/1.1/" viewBox="0 0 668 979">
<path id="path4" d="m314.56 0h37.87c91.53 11.62 170.13 69.15 232.76 133.77 13.88 10.91 11.78 30.21 16.47 45.57 4.28 19.24 13.7 36.76 21.15 54.86 7.34 48.53-9.15 95.38-18.22 142.37-22.41 62.8-44.73 125.66-67.76 188.22-46.17 76.3-97.72 150.25-150.7 221.37 78.13 1.3 159.06-11.84 238.44-9.76 11.92 1.19 25.68 1.17 34.68 10.44-3.69 38.24 5.01 76.03 8.75 113.82v29.82c-0.86 10.08-3.48 22.54-15.76 23.84-61.29 6.57-126.18-17.58-185.58 4.61-141.58 3.24-285.24 14.78-425.52 11.13 11.12-22.7 40.67-18.72 60.72-27.79 98.43-1.05 197.36-2.08 295.14-14.3 7.7-20.08 30.2-32.44 38.76-53.12-38.38 17.72-76.54 38.7-118.64 46.44-9.04 2.73-22.6-1.7-21.79-12.7 26.95-25.15 54.07-50.16 81.13-75.18 4.84-3.03 19.12-4.22 10.87-11.4-107.77 1.85-183.99 101.82-290.7 108.72-34.77-3.64-54.7 30.11-79.25 48.27h-8.05c-3.3-2.09-7.5-3.39-9.33-7.11v-3.49c40.27-47.65 81.86-94.45 118.02-145.38 28.22-39.68 49.51-83.6 75.04-124.96 59.7-97.66 124.23-192.66 176.04-294.89 8.65-8.03 14.31-18.81 13.61-31.01-4.96-59.24-19.67-119.61-53.62-169.25-12.55-20.12-36.08-34.51-60.43-29.38-63.48 7.78-111.72 53.71-164.64 84.47-13.77 12.08-18.4 31.85-33.08 43.07-5.86 2.71-18.29 8.17-21.01-1.11-21.12-44.27-13.84-98.78-45.62-138.41 0.63-24 30.2-28 42.98-44.27 16.97-24.68 38.43-46.47 64.66-61.32 60.69-37.22 132.28-51.96 202.61-55.96m-5.94 28.56c-71.31 5.6-149.6 19.64-200.82 74.11-2.66 1.55-7.07 9.57 0.98 6.27 45.82-3.14 78.76-41.02 121.82-52.34 5.11-0.55 14.42-4.86 16.51 2.46 23.21-19.11 58.28-11.24 81.82-29.35-5.11-2.6-13.87-1.79-20.31-1.15m52.56 6.81c-44.29 18.48-90.36 34.1-134.75 53.06-47.84 21.05-97.66 37.7-148.92 48.08-0.89 0.77-8.75 0.42-5.81 3.75 8.86 8 16.36 17.95 26.04 24.73 25.38 2.55 41.46-19.89 61.3-30.96 56.84-18.06 116.19-26.62 174.95-36.06 35.74-2.41 67.3-23.37 103.5-22.94 4.47 3.66 5.64 14.53-1.63 15.93-25.71 10.51-52 19.58-77.72 30.07-2.04 0.56-8.14 6.11-3.17 5.9 47.83-7.68 96.25-25.73 143.87-26.71-5.83-13.29-24.54-13.56-36.58-15.29-9.66-17.34-31.77-45.14-53.04-28.55-17.83-0.07-32.06-15.39-48.04-21.01m152.55 83.04c-35.25 13.55-71 26.25-105.75 40.85 36.46 0.44 74.55-15.29 112.31-13.26 15.97 3.17 7.5 25.18-2.01 31.3-33.76 24.67-75.65 33.67-112.52 52.46-7.74 4.13-18.26 12.14-13.52 22.1 19.75-3.28 39.91-5.8 60.02-6.63 43.19-0.52 82.59-22.2 125.75-23.07-4.84-34.29-17.32-69.03-41.67-94.49-6.07-5.22-14.03-11.27-22.61-9.26m-216.12 4.08c-74.37 15.61-146.46 41.33-216.54 70.58-20.44 7.29-9.88 33.17-10.59 49.41 1.28 8.86 7.28-3.8 10.74-6.27 63.38-67.06 160.85-73.06 241.57-107.59-2.54-8.47-18.07-6.84-25.18-6.13m105.01 15.08c-23.45 1.08-47.67 2.11-69.47 11.82 0 3.88 0.14 11.17 6.06 10.7 28.47 3.37 55.42-9.84 80.72-21.35-1.89-4.93-12.7-0.37-17.31-1.17m55.84 32.05c-28.1 2.22-57.28 5.05-83.28 16.51-5.38 12.14 4.6 28.11 6.76 38.89 34.92-14.6 68.98-32.43 100.01-54.21-6.15-2.1-16.04-1.11-23.49-1.19m121.91 74.75c-49.4 22.82-101.68 37.97-152.78 56.27-2.33-0.05-1.89 3.37 0.41 2.39 48.99-4.37 98.52-12.34 143.91-32.03 10.6-3.11 17.1-20.84 8.46-26.63m-94.83 6.18c-26.47 2.01-55.14 0.66-79.27 13.54-10.86 6.23-3.83 35.3 9.78 23.97 31.66-13.85 64.69-24.33 97.05-36.18-8.03-2.83-18.85-1.82-27.56-1.33m81.9 42.75c-52.82 12.52-108.51 14.73-159.42 33.98 3.24 13.42 4.03 27.97 9.13 40.73 55.59-13.6 102.4-49.34 153.71-73.34 0.7-2.45-2.02-1.49-3.42-1.37m26.04 11.07c-55.49 34.87-124.04 45.15-176.5 85.64-9.15 19.79-16.72 40.46-25.62 60.42-0.91 2.9 3.17 1.18 4.56 0.62 49.41-22.75 100.38-42.95 146.33-72.36-23.92 1.74-49.14 4.84-73.48 7.17 2.1-4.65 9.52-4.04 13.62-6.47 40.87-14.33 87.29-28.99 109.86-69.14 0.73-1.51 4.46-6.69 1.23-5.88m-41.13 94.89c-56.94 26.23-116.51 46.7-172 76.04-2.59 2.42-8.49 3.39-8.27 7.63 61.98-5.87 123.76-18.69 181.36-42.72 0.07-12.39 2.7-30.58-1.09-40.95m-8.79 61.24c-18.18 18.23-35.09 39.53-59.62 49.43-56.02 23.83-112.32 47-168.21 71.1 4.59 3.9 11.77 2.17 17.27 3.92 60.06 3.93 119.08-14.03 175.96-31.31-6.78-35.17 20.47-59.21 34-87.74 0.07-1.15 3.79-6.83 0.6-5.4m-73.96 19.04c-42.14 4.11-82.62 24.99-124.52 22.29-7.97 18.3-20.77 34.74-25.96 54.02 13.69 4.19 27.03-4.47 39.94-8.79 46.04-18.92 91.39-39.82 134.7-64.4-1.82-7.95-17.76-2.09-24.16-3.12m-36.21 105.79c-20.91 4.57-42.02 8.12-63.05 12.1-28.77 1.14-58.18-10.58-86.39-0.45-6.68 0.43-12.78 3.36-15.08 9.92-27.25 52.01-51.64 105.55-80.26 156.84-0.5 1.22-1.41 4.03 0.94 2.84 24.81-9.92 49.91-19.21 74.62-29.36 16.69-21.87 51.18-19.27 68.74-39.37-24.6-2.25-56.04 12.8-79.22-3.48-8.65-7.4 0.46-18.58 7.52-23.15 51.75-35.47 112.08-55.38 168.95-81 2.54-0.51 9.26-5.9 3.23-4.89m47.97 2.99c-65.71 25.45-129.51 55.68-192.24 87.73-3.76 1.35-9.34 5.87-4.84 9.72 35.3-3.32 69.33-21.89 105.2-17.49 11.18 3.73 5.62 18.54-1.66 23.59-33.81 28.49-75.08 46.11-115.25 63.7-26.04 10.27-52.06 22.29-80.37 24.34-7.43 2.26-17.1 5.54-20.14 13.01 52.85-16.4 108.24-24.04 162.91-31.74 3.29 7.4-5.79 15.51-11.35 20.44-47.83 37.46-106.84 55.61-159.74 84.25-16.5 11.08-32.91 24.86-44.7 40.08 72.47-14.26 134.21-57.45 200.79-86.9 8.82-4.39 2.34-18.27 10.35-24.77 50.85-65.81 101.77-131.59 152.75-197.3 1.48-2.52 2.32-9.66-1.71-8.66m-224.77 195.21c-36.58 4.22-68.72 24.56-105.08 29.9-8.53 1.28 4.33 8.02 1.78 11.99-19.36-2.58-20.36 23-30.34 34.72 14.39 2.56 28.16-5.07 41.48-9.7 39.28-17.21 78.68-36.81 111.49-64.69-1.96-6.48-14.1-1.22-19.33-2.22m310.98 22.97c-18.62 1.84-34.66 12.68-48.3 24.77-25.67 25.85-52.91 50.02-79.33 75.09 3.43 1.91 9.04 0.59 12.9-0.26 47.33-26.71 99.19-43.36 149.18-64.1 9.88-2.88 24.59-14.22 16.32-25.35-14.83-9.39-33.58-11.31-50.77-10.15m-123.01 12.99c-11.33 2.71-24.64-1.36-34.21 6.91-26.1 21.07-50 44.64-74.15 67.88-3.43 1.34-5.16 9.65 0.15 7.18 35.28-15.51 72.23-29.32 102.81-53.3 9.84-10.11 22.35-17.31 36.24-19.81-0.84-12.8-22.02-8.4-30.84-8.86m174.82 39.81c-27.74 19.53-57.13 39.03-85.24 56.84 30.14 1.69 63.74 2.9 94.67 9.87 4.25-19.51-11.67-38.56-8.75-58.77-2.01-0.85 3.48-9.45-0.68-7.94z"/>
</svg>
