<?xml version="1.0" encoding="UTF-8" standalone="no"?>
<svg id="svg2" xmlns:rdf="http://www.w3.org/1999/02/22-rdf-syntax-ns#" xmlns="http://www.w3.org/2000/svg" height="946pt" width="684pt" version="1.1" xmlns:cc="http://creativecommons.org/ns#" xmlns:dc="http://purl.org/dc/elements/1.1/" viewBox="0 0 684 946">
<path id="path4" d="m177.81 0h19.71c50.22 4.68 100.86 2.19 150.96 8.53 66.93 7.79 134.65 25.44 190.54 64.44 34.4 25.06 57.41 62.05 72.93 101.07 11.03 19.82 13.84 43.31 9.54 65.48-12.18 63.06-36.24 123.67-59.28 182.9 37.04 34.63 75.4 70.37 101.85 114.52 9.9 15.7 17.66 33.07 19.94 51.66v21.92c-5.22 114.84-71.48 224.74-170.75 282.72-19.2 11.64-40.33 19.85-62.2 24.81-58.61 14.71-118.7 22.31-178.77 27.95h-57.68c-70.33-5.02-138.71-24.16-208.88-30.52-2.91-10.08-2.81-20.95-5.72-31.12v-15.73c17.04-41.23 31.55-83.51 47.01-125.38 0.97-1.84 1.41-4.7 3.84-5.08 43.11-1.39 86.23 3.41 128.53 11.46 52.32 9.41 105.82 8.78 158.69 5.46 35.61-2.37 72.03-9.31 102.88-28.14 11.89-6.68 22.12-17.85 24.58-31.62 4.64-65.08-20.83-132.38-70.86-175.02-19.73-13.9-43.95-18.74-67.59-20.35-52.55-6.17-105.64-4.22-158.23-9.79-9.47-1-19.21-3.23-27.05-8.9-9.65-8.03-7.15-21.75-1.93-31.49 7.99-31.31 11.28-65.03 28.86-92.94 11.01-14.47 29.51-1.31 42.14 3.39 26.9 5.35 54.62 0.05 81.42-3.96 40.71-8.04 83.78-21.75 112.38-53.59 17.07-17.9 21.27-47.82 7.3-68.7-19.69-29.63-48.62-51.47-77.73-71.18-13.42-10.14-31.28-9.22-47.22-9.83-59.38 0.43-122.93-3.16-177.02 25.99-12.1 6.85-29.88 11.7-42.01 3.67-2.32-21.26-0.14-43.36-2.74-64.73-6.89-2.64-16.15-1.2-21.55-6.9-2.36-22.74 9.19-45.36 26.89-59.41 30.71-26.41 71.29-34.9 107.22-51.59m-3.37 21.5c-29.79 10-57.17 27.07-82.2 45.77-7.99 9.75 12.43 7.3 16.52 4.65 24.24-10.59 47.24-25.49 64.94-45.32 1.16-0.74 4.02-6.39 0.74-5.1m77.29 11.98c-20.67 5.61-32.85 25.9-50.85 36.35-4.36 0.77-7.49 8.18 0.4 4.67 28.99-11.77 59.64-23.11 87.6-35.55-9.98-5.47-25.22-6.87-37.15-5.47m-33.25 1.21c-40.18 12-78.79 30.66-113.51 54.22-18.93 12.85 0.2 33.98 4.49 49.94 22.51-3.6 44.88-8.37 67.41-12 47.47-8.48 91.04-35.64 119.57-74.42 1.72-2.78-2.33-0.23-3.24-0.31-53.15 22.15-105.58 45.98-158.51 68.66-8.45 5.23-16.83-10.21-9.5-15.59 29.32-27.85 65.08-47.59 98.01-70.71-1.18 0.05-3.54 0.16-4.72 0.21m136.26 7.71c-23.21 11.14-45.49 25.64-65.12 42.42-5.16 5.06 3.67 4.78 7.08 3.09 24.67-9.57 49.78-18.26 74.23-28.2-1.3-8.39-4.86-21.67-16.19-17.31m95.22 20.82c-31.43 9.61-59.2 28.79-83 51.07 1.23 2.88 5.32 1.18 7.8 0.6 32.69-12.34 65.36-24.78 98.13-36.94 6.02-1.13 6.94-10.94 1.09-13.11-7.67-2.66-16.07-1.95-24.02-1.62m-49.5 4.22c-40.97 18.84-90.05 18.65-125.5 48.9-0.48 3.63 4.2 3.2 6.59 4.1 20.9 3.06 44.59 6.61 63.35-5.54 21.73-11.62 40.43-28 56.66-46.39 0.66-1.35 0.29-1.71-1.1-1.07m108.18 29.04c-31.17 9.17-60.58 29.78-82.45 52.45 34.99-8.94 68.88-22.34 102.57-35.29-2.9-7.94-9.31-20.53-20.12-17.16m-45.91 2.01c-33.75 10.3-67.44 22.5-98.88 38.62 9.83 1.81 20.24 9.4 31.14 8.57 25.36-16.9 52.05-31.61 78.84-46.06-0.13-4.47-8.35-0.1-11.1-1.13m33.35 41.97c-25.84 10.86-52.02 21.38-77.38 33.19 0.31 3.9 2.59 13.43 9.05 11.97 26.16-3.63 46.48-22.61 65.56-39.26 1.29-1.04 7.23-6.96 2.77-5.9m42.68 4.01c-35.2 10.4-66.83 34.78-90.54 61.49 37.28-12.07 75.96-26.54 115.76-23.15 11.67 3.38 3.03 17.32-3.29 21.97-29.51 21.67-65.24 32.82-95.32 53.55-2.45 2.49-8.2 8.34-5.14 11.4 33.91-4.75 66.98-26.98 101.99-15.21 6.28 4.27 3.54 13.2-2.62 16.21-38.9 25.83-82.27 46.23-122.44 68.38 42.65 2.25 85.31-43.2 128.85-19.2 12.59-21.83 20.12-46.31 27.62-70.27 8.63-27.61-7.97-53.5-20.41-76.86-8.46-11.89-15.92-33.5-34.46-28.31m-18.16 61.07c-20.45 3.24-42.43 6.84-58.94 20.2-7.54 4.85-1.34 14.97 4.97 15.84 18.17-16.7 44.33-19.46 63.3-34.76-1.5-2.68-6.95-1.16-9.33-1.28m7.05 63.94c-22.6 4.38-46.26 9.24-65.41 22.69-5.69 3.48-9.03 15.63-2.37 18.73 22.6-15.09 46.18-29.31 71.54-39.53 3.98-1.29-1.18-5.15-3.76-1.89m3.74 58.91c-43.35 13.12-87.11 25.07-129.83 40.18-66.49 22.78-130.07 53.43-190.77 88.76 14.32 2.65 34.18 0.3 50.05-0.33 79.98-53.87 174.93-77.43 260.07-121.06 2.67-2 11.99-5.15 10.48-7.55m29.33 5.17c-77.08 26.37-150.71 62.6-222.76 100.4-4.78 4.24-15.25 5.62-16.75 11.99 65.36-4.36 117.64-58.53 184.06-55.6 13.79-1.79 12.38 16.44 2.98 20.97-28.07 20.09-62.82 27.8-92.15 45.75-3.96 3-9.81 5.86-10.86 10.88 13.65-4.08 26.87-10.08 41.01-12.73 5.95-1.48 4.26 8.5 2.67 11.45-11.48 8.93-25.11 15.04-36.69 23.87 0.9 11.38 16.08 15.97 24.87 21.3 34.5-12.24 61.8-41.15 90.72-60.41-16.57-15.06-40.02 8.04-57.66 4.69 40.08-28.89 74.87-69.51 93.72-116.23 1.12-3.31 4.49-10.31-3.16-6.33m-258.51 47.72c-32.23 2.26-66.89 3.14-95.19 20.74-17.42 9.96-31.43 27.5-33.51 47.85 44.89-7.37 88.65-27.52 123.29-57.06 1.99-2.68 14.25-12.07 5.41-11.53m169.24 31.15c-48.09 16.72-96.52 32.59-144.52 49.57-5.9 3.75 1.65 10.72 6.66 9.53 15.65 1.45 36.83 7.55 45.77-10.22 30.37-16.54 61.69-31.74 92.65-47.32 1.38-0.62 1.21-2.81-0.56-1.56m75.87 45.95c-34.53 17.54-67.27 42.2-91.35 72.65 38.04 4.5 68.75-29.74 107.06-24.49 2.84 2.73 9.37 10.35 2.79 12.35-30.33 8.7-60.61 17.6-90.96 26.25 9.03 5.54 23.23 4.15 34.04 8.06-1.7 8.92-15.52 16.72-11.42 26.62 33.65-8.25 66.34-21.37 99.77-30.81 9.3-1.26 23.5 4 17.91 15.76-29.05 32.22-72.99 49.91-99.82 83.2 41.09-11.5 79.45-38.85 124.18-33.5 2.77 36.43-52.33 33.93-60.02 64.15 12.19 0.1 24.49-1.65 36.71-0.2 7.11 9.79-3.83 20.03-11.27 25.57-39.26 24.96-84.22 38.53-127.65 54.17-2.52 0.21-11.04 5.4-4.39 4.83 36.79-7.83 72.49-20.89 109.06-29.75 9.95-1.24 14.08 10.03 11.32 17.87-4.82 16.45-20.97 25.99-34.62 34.54-51.01 32.67-112.13 46.94-159.7 85.29-10.46 4.86-16.55 15.87-17.41 26.76 63.06 1.78 123.66-27.41 168.22-70.94 56.35-55.09 90.7-130.08 103.77-207.21 1.56-11.94 4.77-24.85-0.92-36.21-18.72-52-57.56-98.44-105.3-124.96m51.15 103.89c-34.03 8.49-68.31 17.19-100.37 31.71-13.14 3.33-5.58 21.45 2.13 26.01 34.3-9.76 68.3-25.41 94.53-50.11 1.3-1.63 7.46-6.57 3.71-7.61m20.97 61.14c-41.29 3.03-72.98 34.51-112.98 42.13-0.89 8.73-1.33 19.72 0.32 27.28 30.65-29.37 78.61-32.97 110.46-61.53 1.73-1.32 7.97-9.17 2.2-7.88m-55.15 75.9c-21.97 4.68-44.41 10.87-63.05 23.87-2.61 1.92-10.19 11.2-3.21 11.7 25.53-2.85 54.47-10.83 69.33-33.54 1.92-1.95-1.68-2.51-3.07-2.03m4.26 54.19c-41.21 16.37-82.52 32.61-123.5 49.56-80.32 39.75-159.1 89.29-250.37 98.52-6.22 0.32 0.61 5.95 3.77 5.43 45.02-0.42 90.03-1.64 135.04-2.43 0.83-21.86 22.46-33.52 39.49-42.6 61.31-34.11 133.08-50.51 187.3-96.67 1.72-2.59 14.7-12.07 8.27-11.81m-487.14 6.73c-11.97 11.16-20.51 25.58-28.47 39.76-4.88 4.76 0.89 15.05 7.3 11.31 29.48-8.97 58.7-18.75 88.15-27.83 3.97-1.51 9.66-2.55 10.9-7.41-24.77-9.6-51.57-13.28-77.88-15.83m356.08 19.19c-79.16 8.98-159.13 4.42-238.53 8.42-53.2 18.05-108.86 33.49-155.98 65.1-14.83 8.36-12.47 28.26-3.45 40.05 19.82 2.67 39.66 5.32 59.49 7.95 29.23 5.95 58.75-2.85 86.55-11.35 19.6-7.84 42.73-14.91 54.29-33.3-56.61 7.3-110.61 34.24-168.5 29.88-6.06 0.4-9.82-8.01-5.18-11.96 10.59-6.02 22.91-8.88 32.66-16.41 2.95-3.76 1.63-10.16 6.74-12.31 39.87-22.2 89.06-19.08 128.42-42.48 8.36-4.08 18.32-8.22 27.6-4.84 10.59 7.44-1.35 21.69-10.77 23.7-30.8 9.01-63.3 10.95-93.81 21.09-7.32 2.65-15.91 10.64-13.15 18.98 41.93-27.55 95.75-11.24 139.14-34.92 19.07-9.46 35.36-27.76 58.39-25.85 0.95 7.55-12.49 10.58-13.09 17.84 39.59-1.56 78.21-16.16 111.4-37.34 2.84-1.92 0.05-3.35-2.22-2.25z"/>
</svg>
