<?xml version="1.0" encoding="UTF-8" standalone="no"?>
<svg id="svg2" xmlns:rdf="http://www.w3.org/1999/02/22-rdf-syntax-ns#" xmlns="http://www.w3.org/2000/svg" height="913pt" width="814pt" version="1.1" xmlns:cc="http://creativecommons.org/ns#" xmlns:dc="http://purl.org/dc/elements/1.1/" viewBox="0 0 814 913">
<path id="path4" d="m483.65 0h16.84c22.21 3.6 44.4 9.26 67.14 6.68 18.33 0.43 36.11-8.34 54.36-4.92 9.82 8.66 11.04 22.79 13.37 34.91 2.55 32.22 8.08 65.71-1.1 97.27 20.26 125.98 14.46 254.47 31.8 380.65 41.7 20.74 87.42-3.35 130.66-3.69 16.85 2.52 13.83 23.53 17.28 35.77v25.5c-7.73 23.44-11.5 49.74-26.37 69.74-42.18 2.78-85 1.5-127.38 3.44 2.85 70.3-21.25 138.97-12.03 209.49 1.36 14.7 3.82 43.01-18.08 42.98-50.84-6.38-99.62 11.86-149.77 15.18h-21.89c-18-1.52-36.87-4.96-51.52-16.27-4.8-74.4 4.93-149.72 0.63-224.39-122.81-6.47-244.37 26.86-367.09 13.19-13.84-3.42-34.46-3.4-40.5-18.96v-6.14c88.22-112.82 177.72-224.86 260.85-341.58 32.08-44.98 66.94-88.79 89.22-139.78 11.57-23.09 22.48-47.06 38.65-67.36 25.72-22.46 41.72-52.84 57.46-82.53 7.08-14.98 20.32-27.84 37.47-29.18m-2.96 30.18c-3.75 9.2-25.14 30.62-2.57 29.92 27.79 0.88 55.88 1.88 83.54 1.04 10.11 0.66 3.91-16.04 13.98-14.86 6.8 5.76 24.33 13.25 14.98 23.32-21.79 18.91-51.43 24.89-76.41 38.57-4.05 2.63-1.72 8.41-1.77 12.27 23.68 2.51 45.66-10.72 69.23-9.24-4.5 25.38-31.64 42.37-57.04 41.35-23.1 8.47-43.56 23.56-63.69 37.5-7.56 3.61 0.28 9.47 5.32 9.07 40.7 0.6 75.78-26.28 116.58-26.14 11.67 1.35 14.02-13.09 16.99-21.13 6.01-25.47 4.47-52.12 3.34-78.03-2.57-12.42-2.28-31.07-16.74-35.74-35.41 0.04-70.46-6.64-105.74-7.9m60.43 40.25c-28.5 17.07-64.86 6.52-93.09 23.55-26.94 25.84-51.15 58.39-58.4 95.63-7.2 13.48-21.22 22.81-26.43 37.35 8.11-0.95 14.45-6.84 21.74-10.01 50.92-28.02 102.5-55.13 151.47-86.49-28.7-0.35-56.11 10.61-84.52 13.3 4.84-8.31 1.02-9.18-7.16-12.68 32.06-13.98 66.02-26.33 92.6-49.74 2.08-1.92 7.81-10.9 3.79-10.91m55.11 115.81c-12.77 11.88-25.82 26.52-44.55 27.35-10.61 3.71-2.87-12.52-8.32-14.47-8.7 8.78-17.38 17.57-26.77 25.61-4.12 2.22 0.31 7.13 4.15 4.46 16.99-0.33 32.99 6.75 49.88 6.91-7.73-18.52 27.35-1.13 34.48-10.34-1.02-13.14-2.18-28.91-8.87-39.52m-100.65 17.31c-51.71 6.5-103.16 23.17-146.55 52.44-1.84 1.58-13.38 9.57-6.72 8.37 30.43-12.39 64.06-8.54 96.02-11.58 3.29-3.37 4.11-8.71 8.04-11.46 25.91-12.52 52.31-24.33 77.84-37.53-8.35-2.77-19.51-0.03-28.63-0.24m43.02 40.05c-25.74 1.63-52.39 2.29-76.89 11.1-17.32 6.78-10.31 32.49-1.84 42.17 28.7-21.98 66.32-24.75 96.71-43.49 5.33-2.37 4.89 9.22 1.58 10.36-23.66 11.89-48.29 21.87-71.99 33.7-0.5 6.52 7.29 12.58 13.39 11.45 9.91-3.61 17.57-13.01 28.86-12.5 22.78-0.98 45.58-6.03 68.28-5.78 2.01 21.59-18.43 37.22-37.83 40.51 14.27 1.48 32.9 0.34 46.57-5.87 1.48-26.03 4.02-52.52 4.2-78.72-23.4-4.1-47.38-4.29-71.04-2.93m-176.97 28.91c-20.98 1.29-49.77 14.33-45.86 39.45 21.67-12.17 45.93-20.92 64.34-38.16-3.89-4.67-12.99-0.56-18.48-1.29m49.25 4.78c-25.86 14.53-50.69 31.86-78.95 41.83 7.22 3.57 19.49 0.46 25.16 8.76 10.75-8.22 23.84-10.87 36.95-12.76 16.21-3.45 22.86-25.9 16.84-37.83m158.6 27c-31.57 8.04-64.08 15.2-96.78 14.32-0.24-9.77-7.96-7.38-13.7-2.43 2.22 8.75-0.44 18.57 1.95 26.83 34.42-10.15 69.97-17.35 102.95-31.91 1.97-0.86 10.15-5.74 5.58-6.81m-196.9 32.24c-10.55 0.59-23.38 1.95-27.82 13.34-25.31 12.08-51.31 22.73-76.81 34.41 19.16 3.84 49.28-0.77 64.22 18.85 3.45 8.01-5.62 12.18-11.19 14.9-32.57 14.28-68.28 22.32-97.56 43.34-5.44 4.51-11.55 13.59-9.54 20.34 27.7-16.14 62.33-21.05 92.92-17.45-2.67 19.11-35.01 17.11-39.26 34.35 42.95 4.2 71.11-40.16 82.45-75.38 16.74-24.95 27.35-54.35 34.74-83.48 1.65-6.81-8.76-2.77-12.15-3.22m206.68 4.86c-37.75 7.29-75.01 17.1-112.64 24.95-11.92 8.45 17.46-0.22 18.46 5.46-5.88 11.47-27.94 5.24-29.78 20.6-0.41 48.72 1.94 97.44 1.99 146.21 48.92-5.93 89.15-37.58 135.18-53-32.76-1.18-66.18 2.73-98.92-0.93-7.83-0.7-6.67-12.63 0.49-13.75 26.12-11.75 53.52-20.64 78.99-33.9 9.18-4.92 20.75-9.1 24.01-20.08-30.02-6.56-57.3 28.98-86.93 10.92 1.16-4.62 6.47-6.43 10.38-8.39 26.49-8.99 54.83-8.29 82.2-12.65 3.43-1.06 9.62-0.58 10.37-5.24-0.61-12.63-2.71-26.77-7.29-37.68-46.96 6.68-80.76 45.57-119.06 69.98-7.77 3.45-29.51 1.32-22.49-10.63 36.4-29.62 82.72-43.82 120.07-72 7.66-4.41 1.15-10.97-5.03-9.87m-282.65 4.09c-10.57 0.71-26 4.09-26.38 17.23 15.37-4.53 30.99-9.93 45.67-15.95-4.38-2.95-13.59-1.26-19.29-1.28m117.74 23.94c-25.47 57.79-61.4 110.84-94.22 164.38 28.74 12.67 61.46 2.52 91.79 6.06 2.42 0.4 2.06-2.82 2.73-4.3 11.73-50.36 8.85-102.56 9.11-153.84-2.84-3.87-4.6-11.76-9.41-12.3m-149.73 33.04c-13.15 0.37-29.69 10.48-25.73 25.35 18.21-4.55 35.21-13.38 50.49-24.18-6.38-4.08-16.98-0.73-24.76-1.17m345.75 32.92c-34.78 1.47-61.43 25.53-91.3 40.06 0.2 2.29-1.07 6.35 2.11 6.51 27.18 2.16 49.52-16.26 75.79-19.03 8.72-1.77 18.2 0.51 26.37-3.41 7.41-8.92-2.09-24.71-12.97-24.13m2.56 49.92c-14.61 8.2-28.61 18.98-41.51 29.07 6.57 2.94 28.23-4.37 27.21 10.16-7.06 12.58-20.51 20.93-33.23 26.92-8.29 2.51-2.27-12.82-9.9-13.18-65.49-4.95-111.54 60.3-176.69 56.18 14.02-9.82 31.36-16.69 45.03-25.54-30.36-3.94-64.52 0.74-93.74 13.18-18.86 7.22-41.02 12.3-59.84 11.09 12.12-11.29 35.04-13.22 47.49-24.31-65.08 3.47-121.12 44.72-185.83 50.13-7.94 3.89-19.05-5.88-15.65-13.66 25.55-15.8 52.35-30.13 78.67-44.31 5.98 5.75 3.07 18.52-2.67 24.54 25.17-5.13 49.94-12.46 75.37-16.06 1.13-7.4-0.32-15.2-1.54-22.45-19.33 5.52-36.92 15.7-55.22 23.81-3.32-0.66-1.47-5.23-0.3-7.21 13.96-20.61 39.81-29.4 59.28-41.79-22.63-2.12-48.39 1.92-71.84 6.16-56.74 11.43-105.61 50.09-134.04 99.93-6.19 9.38-2.46 23.6 8.14 27.96 19.18 8.93 42.13 9.73 62.2 3.43 26.11-15.84 50.7-34.79 79.74-45.27 16.19-6.78 37.37-17.17 52.91-5.13-19.3 12.03-41.55 18.84-62.61 27.42-3.97 2.17-14.36 0.43-12.12 7.56 22.86-0.65 46.72-2.52 67.84-11.71 2.56 5.19-4.63 12.28-5.11 18.56 14.05-8.21 25.39-21.02 39.25-29.68 18.07 6.37 28.42-19.75 46.39-12.81 4.24 2.3 11.62 3.02 13.28 7.48-22.12 11.74-49.2 14.7-70.74 26.18 9.41 7.35 24.87 7.01 36.75 7.14 40.23-2.05 82.95-1.23 119.37-20.9 5.9 4.98-8.15 12.4-9.05 17.58 13.04 6.9 28.67 1.07 40.8-5.75 42.75-23.67 82.62-52.42 126.02-74.92 12.91-7.9 28.29-1.27 41.93-2.06 6.84-4.11 31.29-13.89 8.88-13.72-30.43-6.67-16.35-49.17-34.92-64.02m-412.64 7.16c-17.99 4.4-48.83 7.59-51.97 30.22 23.45-1.05 46.48-10.37 65.53-23.79-2.27-4.4-8.9-6.3-13.56-6.43m571.08 38.92c-16.28 17.17-48.94 24.65-52.11 51.11 19.02-0.98 40.39-4.86 54.5-18.7 6.16-8.19 9.85-29.43-2.39-32.41m-70.14 22.07c-64.5 45.6-140.87 67.75-213.55 96.24-9.42 2.45 2.35 15.9 7.54 7.56 38.56-15.15 81.03-20.82 122.17-24.06-0.76 12.01 2.29 30.99-13.25 34.97-41.4 14.81-83.36 28.18-124.65 43.23-6.17 8.79-18.23 7.32-26.24 11.92 0.38 13.28-21.68 43.47 2.36 45.34 24.15 1.43 48.18-11.46 72.1-3.35 2.95 2.33 10.29 3.48 8.81 8.2-28.75 9.46-62.27 4.08-88.34 21.55-9.7 14.31-6.75 36.18 1.15 51.05 16.47-7.06 37.03-11.41 46.88-27.89 30-25.89 67.89-40.15 99.54-63.59 5.43 0.29 11.74-0.56 16.75 2.07 2.23 6.02-3.84 11.39-7.72 15.16-22.76 19.7-48.73 35.31-75.15 49.56 18.32 0.32 37.47-0.53 55.58-4.22 36.13-14.28 48.19-58.28 45.51-93.72-49.81 3.35-100.32 16.32-149.65 15.59 44.5-24.08 97.84-38.2 146.82-53.15 14.79-45.84 32.92-92.36 68.85-126.12 0.89-1.18 8.58-7.7 4.49-6.34m53.39 50.11c-20.15 1.47-40.58 3.44-59.71 10.33-3.95 2.23-11.05 3.41-10.84 9.26 29.45-0.09 58.85-1.45 88.3-1.47 1.97-5.62 3.12-11.56 3.64-17.48-6.8-2.49-14.38-0.96-21.39-0.64m-201.3 51.81c-43.43 9.66-86.97 18.82-130.34 28.72 8.27 7.87 29.12 9.63 25.79 26.83 36.52-18.56 77-29.37 110.66-53.39 0.88-2.87-4.23-1.98-6.11-2.16m51.03 175.14c-23.46 0.5-45.26 9.4-66.54 18.33-28.13 12.04-63.18 0.26-86.8 23.39 2.68 7.17 12.31 9.38 19.31 10.51 43.76 2.71 86.44-9.25 128.91-17.44 7.71-6.58 18.16-32.92 5.12-34.79z"/>
</svg>
