<?xml version="1.0" encoding="UTF-8" standalone="no"?>
<svg id="svg2" xmlns:rdf="http://www.w3.org/1999/02/22-rdf-syntax-ns#" xmlns="http://www.w3.org/2000/svg" height="904pt" width="679pt" version="1.1" xmlns:cc="http://creativecommons.org/ns#" xmlns:dc="http://purl.org/dc/elements/1.1/" viewBox="0 0 679 904">
<path id="path4" d="m502.57 0h26.9c27.37 2.45 55.03 1.43 82.33 4.13 0.58 3.86-5.74 4.51-7.88 7.13 1.49 4.83 13.18 1.22 10.75 8.27-6.97 15.77-32.67 28.12-45.09 12.73-32.29-9.45-67.51-7.9-100.44-2.15 12.86 9.98 34.67 13.01 51.75 11.12-3.57 17.16-28.35 18.7-35.94 33.79 8.44-5.33 17.63-11.39 28.19-8.11 13 5.25 21.81-18.68 34.68-7.85 10.9 5.22-5.44 13.76-9.84 16.96-39.17 22.8-83.85 34.33-124.05 54.64-3.8-12.78 21.1-16.68 18.06-30.78-37.73 27.27-84.43 37.94-129.03 48.23-2.16 0.11-6.73 2.28-5.88-1.59 33.99-28.52 74.34-48.95 116.73-61.68 3.72-0.01 4.57-5.98-1.6-2.7-58.27 9.89-117.6 20.45-171.9 44.52-1.67 17.86 18.67 22.2 28.75 30.32-36.8 8.43-71.41 24.87-103.39 44.69-16.2 10.83-33.85 22.31-42.72 40.33 37.8-5.02 69.08-32.1 104.37-45.67 70.67-24.65 146.91-28.58 217.52-53.5 23.26-12.42 47.95-26.58 75.36-24.54 7.04 0.74 4.16 11.76 11.05 12.77 13.11 4.49 28.54-4.18 28.07-18.72 0.28-8.12 10.1 3.45 11.8-4.82 2.23-19.41-2.91-39.93 0.84-59.34 9.47-4.28 25.32-7.96 33.19 0.84 5.72 23.69 2.25 48.78 1.79 72.93-1 12.34-2.53 27.11-13.39 34.86-7.84 4.93-10.84-9.54-18.59-5.94-95.08 23.87-196.72 9.5-289.25 44.85-17.42 6.19-37.79 19.51-35.28 40.72 6.35 30.91 0.64 64.45 15.25 93.42 81.79-5.36 165.97-0.98 243.87 26.59 50.54 18.43 99.31 47.66 130.4 92.61 9.11 14.95 25.85 26.72 26.3 45.72 3.06 36.91 1.56 74.06 3.13 111.06 4.51 6.96 8.72 14.34 9.62 22.77v24.83c-12.99 91.5-82.29 165.63-159.14 211.42-53.25 33.18-117.57 37.76-178.59 39.14h-61.66c-40.78-3.61-80.25-16.03-121.17-18.46-18.63-1.79-38.2 2.26-56.06-4.95-22.53-8.32-41.8-29.65-67.93-23.87-12.05-6.36-23.22-15.04-34.45-23.05v-5.28c10.95-48.4 19.59-98.53 43.94-142.41 5.1-8.48 14.22-18.65 25.26-16.36 26.05 7.54 47.84 25.05 74.65 30.53 37.95 9.94 76.66 19.12 116.05 19.83 52.94-2.72 109.66-8.03 153.97-40.1 15.14-10.19 24.14-28.78 21.33-47.02-2.6-59.6-47.23-122.12-109.74-126.89-4.43-3.78-5.35-12.39-12.93-10.58-58.39-4.68-116.48-15.25-175.26-13.21-24.47 0.37-48.17 11.95-72.83 6.64-14.29-2.09-2.67-19.2-7.12-27.85-8.14-24.21-7.69-50.18-2.43-75.02 4.2-16.03 21.27-25.28 22.58-42.52 7.7-56.37 5.13-113.86 17.32-169.66 4.67-46.97-1.18-95.17 10.63-141.36 3.32-12.77 10.01-29.78 25.44-30.12 50.68 15.77 104.28-0.04 156.12 2.66 17.83-1.6 35.13 6.14 52.86 2.99 54.05-5.83 108.51-5.37 162.73-7.94m-243.9 34.61c-38.35 1.26-76.77 0.48-115.1 2.58-4.73 12.04-11.74 24.15-10.29 37.58 14.57 1.15 29.09-2.37 42.41-8.08 32.03-13.85 64.69-27.36 99.55-31.79-4.21-3.15-11.52 0.23-16.57-0.29m93 0.77c-56.4 25.32-111.71 53.35-167.77 79.53-1.53-0.63-4.3 3.15-1.83 3.03 86.79-16.17 169.14-48.82 250.91-81.2-23.4-4.25-55.05-0.8-81.31-1.36m-137.13 37.12c-26.9 10.08-53.71 20.53-80.5 30.89 0.15 17.57-0.76 35.23 0.63 52.76 0.41 7.87 10.86 3.27 15.58 3.22 19.59-4.7 41.88-10.11 56.52-23.22-19.76-2.96-41.6-4.61-61.48-10.37-4.44-3.33-0.89-9.3 2.51-11.99 20.69-14.09 44.79-22.41 65.27-36.71 2.35 0.04 6.08-6.69 1.47-4.58m6.09 80c-28.59 14.41-60.08 21.93-91.08 29.17-1.72 8.97-0.6 19.24 0.2 28.48 33.13-17.31 67.48-32.24 100.27-50.16-2.66-2.55-4.8-9.31-9.39-7.49m-17.04 76.92c-23.72 4.15-46.05 14.87-65.44 28.94-0.78 2.68 1.95 4.49 4.07 5.36 22.87-13 55.18-9.75 74.69-30.09 0.6-6.34-9.81-4.08-13.32-4.21m11.67 45.86c-15.55 0.3-23.74 18.2-39.74 16.69-4.4-3.96-0.79-11.3-3.66-15.98-19.59 1.5-40.24 4.4-56.54 16.28-7.73 5.59-9.06 16.83-4.03 24.65 18.21-3.31 32.17-16.87 47.27-26.5 5.85-1.92 5.05 8.63 10.47 9.63 15.69 9.44 33.88-1.17 49.96-3.41-2.12-5.2 4.94-21.95-3.73-21.36m-51.74 45.25c-23.74 3.77-63.87 9.31-63.7 40.39 22.14-8.83 43.72-19.73 62.44-34.61 2.76-1.4 10.51-8.36 1.26-5.78m55.04-0.13c-33.36 17.83-69.72 29.54-102.47 48.61-2.38 2.49-8.48 3.86-7.8 7.93 42.96-2.37 76.98-34.87 119.66-38.9-1.82-6.18 0.51-19.4-9.39-17.64m107.94 36.16c-7.16-0.39-13.22 2.66-18 8.02-35.09 21.5-70.54 42.45-106.53 62.4-2.89 3.29 2.72 0.97 4.39 0.44 44.59-16.98 89.14-34.22 132.89-53.24 4.54-0.72 6.01 5.62 8.98 7.93 3.13-13.97 20.92-15.06 29.63-22.02-15.25-6.63-34.67-3.76-51.36-3.53m-128.29 3.9c-36.86 10.77-73.6 22.16-110.39 33.19-6.93 11.14-1.02 27.64 5.97 36.08 2.71-10.15 10.28-17.82 19.6-22.35 25.2-14.52 53.93-21.57 79.23-35.73 2.55-1.89 10.12-9.48 5.59-11.19m214.9-0.33c-13.59 29.3-48.22 36.42-73.11 52.82-6.4 3.9-16.2 14.59-2.28 16.04 42.99-1.44 76.5-45.22 121.29-33.1 7.05 7.53-0.58 32.69-14.95 23.42-17.85 27.37-53.86 32.55-76.83 54.06-2.45 3.13-1.04 11.65 4.15 9.06 37.5-14.98 75.14-29.79 111.39-47.64 6.91-4.3 15.17-0.66 22.51-3.34 8.9-2.37 11.38-13.82 20.67-15.63 7.5-2.92 12.66 5.63 19.78 5.15 3.62-4.97 0.45-12.56 0.85-18.28-18.29-6.02-36.52-12.41-54.21-20.08-26.64-6.8-55.17-7.72-79.26-22.48m-182.65 4.27c-28.34 12.75-56.26 26.5-84.29 39.93 0.24 3.81 2.07 7.38 3.99 10.63 29.3-11.93 60.9-20 86.94-38.54-0.76-3.58-0.58-13.94-6.64-12.02m114.98 26.01c-47.13 17.62-93.48 37.73-141.59 52.54-15.18-4.83-27.87 12.17-42.63 4.95-10.04-10.95 4.92-19.36 14.62-20.9 4.03-0.89 11.37-11.76 3.66-10.65-25.5 9.04-50.76 18.92-76.25 27.99-12.48-0.72-16.02 14.35-19.02 23.63 18.7 1.89 36.82-11.66 54.66-7.92-8.44 10.46 8.26 6.79 14.95 3.79 35.78-19.33 78.83 11.51 113.91-11.12 15.4-30.16 49.66-42.53 77.29-58.8 4.48-0.06 3.47-5.27 0.4-3.51m212.87 34.99c-26.05 14-48.08 34.36-73.19 49.96-0.58 4.76 7.09 4.39 10.11 5.48 29.55-2.42 58.42-14.38 82.21-31.74 2.5-11.35-9.78-20.74-19.13-23.7m-170.62 2.09c-36.08 5.67-72.67 12.74-105.8 28.66 36.32 20.6 92.88 17.88 116.22-22.39 4.97-8.7-5.16-7.3-10.42-6.27m114.61 14.81c-38.94 9.53-72.9 31.98-108.3 49.92 0.96 10.11 16.55 6.01 23.13 6.18 30.16-11.13 58.88-27.06 83.66-47.57 2.91-1.57 8.48-9.76 1.51-8.53m101.12 17.06c-31.16 30.39-71.49 49.91-100.84 82.18-4.19 3.72-10.17 16.95 1.47 12.61 34.98-20.12 76.03-25.72 111.83-44.2 4.43-2.44 10.56-6.5 8.62-12.35-3.1-13.99-9.24-30.72-21.08-38.24m-106.93 40.07c-19.89 5.13-39.4 11.62-59.36 16.5-19.91 6.22 1.85 29.83 8.32 39.93 13.32-2.55 27.18-10.41 33.43-23 5.48-9.74 5.07-23.05 15.58-29.4 1.12-0.42 5.71-5.16 2.03-4.03m90.98 38.97c-17.08 3.84-35.79 1.76-51.55 10.46-10.08 19.98-37.53 16.35-55.21 25.91-7.81 6.85-10.32-3-14.66-6.76-5.42 9.4-15.66 15.31-19.2 25.8 6.24 3.56 14.08 6.35 21.26 4.35 25.33-9.66 51.18-19.93 75.64-30.53 0.32-18.76 18.84-15.03 31.61-13.75 2.38-5.49 18.16-13.72 12.11-15.48m29.41 15.03c-30.78 12.49-61.35 25.56-92.06 38.23-2.35 1.19-6.06 3.07-4.46 6.25 39.6 3.86 78.68-8.3 117.69-10.1-4.35-12.29-0.65-41.75-21.17-34.38m-56.28 64.07c-31.71 6.48-70.93 8.17-93.34 33.99 3.58 12.85 23.93-9.05 31.94 1.41 20.99-12.82 45.94-19.49 69.34-27.5 2.81-5.97-1.56-11.24-7.94-7.9m75.84-0.07c-12.06 0.95-17.28 14.27-28.68 16.62-9.41 4.06-19.15-6.2-27.96 0.71-45.88 22.68-95.49 38.81-135.96 71.13-32.07 13.58-68.25 21.34-95.18 44.76-2.17 1.8-9.3 12.85-2.55 10.58 43.09-26.24 90.77-49.04 142.24-49.9 31.83 0.01 58.9-19.79 89.93-24.1 17.56-2.62 34.28-10.37 49.25-19.68 13.89-12.15 15.69-32.8 13.83-49.83-1.23-0.07-3.69-0.22-4.92-0.29m-13.9 67.06c-48.75 8.69-95.55 26.05-141.27 44.78-20.26 9.06-41.94 17.08-57.36 33.74-9.3 10.31-11.04-14.31-21-10.09-41.31 17.41-72.61 50.84-109.06 75.94-18.89 12.74-38.53 28.47-62.44 28.98-3.93-3.91 2.16-9.87 4.06-13.4 19.99-13.24 40.87-25.21 60.63-38.81 4.39-1.18 4.43-9.93 1.18-11.61-6.41 3.59-13.56 12.05-21.06 9.01 6.33-15.04 24.37-22.27 39.99-23.47 5.37-6.38 8.62-14.47 12.79-21.67-12.12-3.58-23.19 5.4-33.32 10.79-42.9 26.67-85.09 54.56-126.34 83.72-3.6 2.31 1.26 5.58 4.01 5.22 84.42 28.59 178.89 37.4 264.07 6.8 46.29-15.75 94.99-35.44 126.3-74.38-5.52-0.39-15.5 2.64-22.55 3.91-7.2 0.68-4.36 9.99-10.3 11.99-39.36 20.55-80.31 37.9-121.4 54.65-13.2 2.7-12.05-19-2.21-22.49 15.04-8.05 42.69-17.94 37.75-38.87-45.38 17.84-90.04 39.51-136.08 56.62-5.05 2.12-16.13 6.9-17.93 0.51 57.76-35.13 117.17-67.85 178.94-95.43 18.89-8.8 39.77-14.28 55.94-28.05 15.87-12.61 33.96-24.89 54.71-26.48 0.76 4.33-4.59 7.27-6.52 10.69-34.77 35.85-73.52 68.39-110.83 101.01 44.51-15.41 87.18-37.29 124.03-66.83 19.89-15.28 39.87-35.23 42.53-61.48 3.08-6.04-3.73-6.8-7.26-5.3m-549.91 23.77c-17.41 26.29-22.53 60.41-27.65 91.34 12.79-4.08 12.39-23.15 26.06-27.58 16.68-14.32 47.34-24.61 47.79-50.24-12.3-9.95-30.86-10.98-46.2-13.52m62.77 19.02c-20 18.63-37.15 41.39-55.38 61.63 33.22-12.63 65.95-26.76 98.09-41.95 5.16-0.85-1.16-6.4-3.62-4.47-14.4-1.14-26.57-10.42-39.09-15.21m107.21 21.23c-15.64 1.88-30.28 8.33-45.67 11.44 5.25 6 11.22 13.12 17.74 16.8 6.27-13.83 22.22-15.19 33.55-22.54 4.29-4.23 0.04-8.96-5.62-5.7m-90.17 22.85c-40.53 7.26-75.86 30.23-112.56 47.64-3.75 0.08-4.07 6.14-0.81 6.85 27.54 9.78 54.92 20.04 82.46 29.82 11.14 0.9 22.43-0.82 33.6-1.33-1.14-6.02-11.31-13.11-4.49-18.64 13.61-16.67 37.45-21.81 49.31-39.61-21.97 9.23-43.42 19.87-65.21 29.6-10.32 6.06-23.32 6.35-34.61 3.45-8.03-1.68-5.11-12.65 0.25-15.81 17.85-13.89 39.49-23.12 54.34-40.72 0.89-2.03-0.99-1.48-2.28-1.25z"/>
</svg>
