<?xml version="1.0" encoding="UTF-8" standalone="no"?>
<svg id="svg2" xmlns:rdf="http://www.w3.org/1999/02/22-rdf-syntax-ns#" xmlns="http://www.w3.org/2000/svg" height="937pt" width="736pt" version="1.1" xmlns:cc="http://creativecommons.org/ns#" xmlns:dc="http://purl.org/dc/elements/1.1/" viewBox="0 0 736 937">
<path id="path4" d="m426 0h2.65c39.95 19.4 78.01 42.57 114.49 67.83 5.89 4.86 13.86 9.03 16.68 16.47-0.27 11.27-13.08 15.82-21.48 20.02-17.39 9.19-39.01 7.45-54.46 20.64-60.84 42.05-122.34 85.86-167.85 145.08-30.75 39.42-56.83 85.04-62.85 135.43 24.85 15.83 54.86 8.87 82.01 3.72 54.97-12.85 112.39-8.61 167.31 2.32 33.96 6.63 66.23 20.49 94.38 40.61 39.05 18.66 67.15 53.65 88.92 90.07 24.54 38.96 38.64 83.16 50.2 127.39v10.79c-7.64 34.38-17.89 68.74-36.92 98.72-37.88 56.66-94.2 100.76-158.49 123.52-21.34 6.33-42.65 12.94-63.02 21.98-32.62 10.47-67.52 10-101.29 12.41h-35.74c-38.2-1.44-73.25-20.45-111.68-19.91-65.32-0.78-129.08-30.87-172.29-79.65-22.05-25.06-39.88-53.49-56.57-82.3v-93.41c3.22-102.51 14.01-206.94 52.99-302.74 22.59-59.65 60.71-113.46 109.85-154.15 33.34-30.32 71.21-55.08 104.21-85.79 39.56-38.39 81.77-77.73 134.82-96.17 10.71-4.07 19.02-12.79 24.13-22.88m3.63 34.4c-14.63 2.51-29.2 11.29-38.51 21.78 16.14 2.4 33.19-6.76 50.16-6.76 1.55-6.18-2.22-19.48-11.65-15.02m25.77 22.13c-9.15 2.57-23.21 4.63-29.35 11.46 18.18-3.86 48.51 2.56 42.04 27.76 10.35-3.98 19.97-10.78 31.31-12.5 2.24-4.06-0.67-8.6-4.48-10.26-11.68-7.86-24.92-16.43-39.52-16.46m-80.96 34.87c-24.35-0.05-44.92 14.24-62.69 29.35-44.44 39.59-89.42 78.57-133.96 118.04-34.7 32.7-64.04 74.67-71.62 122.57 0.62 3.4-2.89 15.32 4.76 10.63 52.4-17.21 112.67-24.02 153.94-63.08-30.16-1.5-63.64 0.39-94.99 1.16-9.95-5.33-6.71-20.53 2.26-25.15 23.88-13.68 52.01-16.57 77.86-24.92 18.07-4.97 38.76-9.75 50.18-26.1-33.01-7.86-66.58 5.17-99.56 3.51-8.11-20.49 20.28-28.88 32.65-17.45 34.23-28.88 84.22-22.88 123.99-40.69 6.18-2.72 19.04-11.11 8.34-17.21-24.34 3.22-48.37 10.7-72.93 11.56-6.39 0.37-9.47-9.53-2.61-11.58 38.93-22.3 78.9-42.81 117.99-64.85 1.71-1.45 5.49-2.21 4.88-5.13-12.71-2.04-25.69-1.04-38.49-0.66m69.16 11.04c-12.43 2.24-20.29 16.64-34.32 12.88-17.74 12.02-38.63 22.51-55.32 34.62 39.16 8.03 74.14-18.25 97.89-46.04-0.7-2.79-6.49-1.49-8.25-1.46m-119.32 101.17c-14.06 4.01-30.81 5.06-43.46 11.32 9.7 9.84 26.67 4.24 38.01-0.92 3.03-1.34 10.12-8.13 5.45-10.4m-59.73 63.88c-20.84 4.6-39.37 15.84-59.47 22.63-3.42 0.49-3.23 8.03 0.72 6.56 20.29-2.79 40.69-4.88 60.96-7.8 0.43-5.6 10.65-24.85-2.21-21.39m-24.09 74.89c-19.92 5.88-39.7 12.65-58.4 21.75-3.87 0.15-4.86 8.8-0.35 7.48 19.86-4.42 42.52-4.13 58.62-18.27 3.28-2.2 7.93-13.14 0.13-10.96m-36.95 35.89c-41.19 9.49-83.78 10.4-125.84 11.6-13.15 54.96-46.66 105.75-42.69 164.08 0.29 55-0.07 110-4.27 164.87-2.5 21.22 11.42 39.01 20.51 56.96 8.41 12.2 15.96 27.53 29.98 34.06 37.7-8.61 69.63-32.71 104.84-47.87 6.13-0.68 4.03-6.91-0.41-7.75-36.15-11.27-70.83 9.59-106.63 10.58-10.14 1.61-28.61-10.1-13.35-18.14 29.52-20.14 65.25-30.43 96.43-48.14 0.12-5.59 0.42-11.39-0.67-16.84-22.2-3.76-41.3 15.69-63.6 12.73-3.22-1.82-1.9-6.28 0.99-7.67 19.24-9.61 40.51-14.34 61.82-16.36-0.56-4.02 4.12-20.06-4.46-15.15-24.63 12.79-51.52 19.97-77.4 29.48 2.81 3.27 7.71 8.21 3.58 12.45-9.67 6.19-22.3 3.96-32.99 2.4-0.89-12.24 9.1-20.92 18.67-26.54 24.78-16.15 56.7-17.39 82.12-30.09-28.81 1.29-57.49 5.92-86.36 5.97-3.6-4.1-13.26-12.49-5.63-16.72 31.39-17.19 62.67-36.92 98.28-43.71 32-12.29 65.89-19.6 97.06-34-62.97-2.95-123.18 22.62-186.14 20.52-6.41 1.57-12.17-4.6-12.1-10.55 8.45-10.17 18.52-19.39 32.3-20.82 47.46-17.19 97.13-29.06 143.5-48.69-8.04-9.53-22.57-9.78-34.07-7.99-44.18 1.1-85.81 21-130.23 18.8-4.33-0.24-6.78-6-2.63-8.53 36.99-34.06 93.58-39.66 129.74-73.35-34.47-3.16-69.89 19.29-105.55 10.96-10.64-7.58 1.49-20.28 10.74-21.75 34.83-7.22 68.24-19.87 102.08-30.74 2.36-0.19 7.22-5.84 2.38-4.06m186.97 53.33c-60.36 5.33-118.23 30.72-179.48 25.67-10.17-6.69-23.66-7-34.66-1.86-26.96 10.34-54.24 20.95-78.43 36.93 44.66 0.84 90.3-9.17 132.85-23.16 1.52 9.83 11.35-0.59 17.27-0.16 45.99-9.76 94.29-10.59 138.59-27.36 4.36-0.24 15.24-13.16 3.86-10.06m78.15 8.86c-5.55-0.67-7.62 4.67-11.46 7.09-29.29-4.37-53.41 21.63-70.97 40.45 49.96-8.19 105.06-1.87 150.18-28.58 3.73-1.77-0.97-4.08-2.78-5.04-20.19-9.43-42.49-16.17-64.97-13.92m-89.23 21.85c-46.51 11.44-88.86 35.59-135.93 45.17-52.06 8.87-98.95 41.2-150.75 46.07 16.99 8.98 39.57 2.45 58.22 0.42 57.79-22.81 122.26-3.25 180.14-24.91 28.69-7.76 57.7-14.74 87.34-17.65 22.26-1.46 44.9-4.33 64.73-15.3 4.22-0.34 3.08-5.07-0.45-4.78-55.62-17.8-105.78 31.29-161.45 20.44-3.64-1.82-2.49-7.07 0.4-9.12 15.16-17.36 39.86-20.13 56.21-35.86 1.36-0.92 5.14-4.52 1.54-4.48m190.36 23.14c-22.66 4.97-48.61 9.33-66.67 23.67 28.25 0.4 62.09 1.59 88.95-12.43-2.6-8.13-13.8-13.93-22.28-11.24m52.54 28.93c-3.83 2.22-12.62 0.96-13.27 6.3 9.17 13.06 18.98 28.69 35.44 32.92 2 0.75 10.41 0.25 7.82-3.88-9.24-12.46-14.06-31.95-29.99-35.34m-63 4.1c-30.88 1.54-63.16 6.4-92.21 14.62 9.82 5.43 25.47 6.97 35.17 15.73 19.43-2.85 39.8-7.54 55.43-20.16 1.69-2.04 7.6-10.91 1.61-10.19m38.3 13.06c-20.52 6.79-43.02 14.03-59.47 27.52 25.41 2.38 55.7 3.87 81.29-3.82 3.72-10.32-11.63-24.22-21.82-23.7m-210.03 19.98c-52.97 8.22-102.17 35.61-140.85 72.21-25.58 24.62-39.51 68.38-19.46 99.97 20.49 18.26 41.75 38.73 70.02 43.12 32.88-0.49 64.62 13.91 97.69 8.17 34.58-3.03 70.66-12.97 95.82-38.21 25.45-25.78 28.31-64.48 27.21-98.7 0.39-24.1-10.72-48.48-30.83-62.26-29.15-19.07-64.92-27.75-99.6-24.3m163.13 20.91c-17.27 0.41-3.88 26.65 6.77 28.28 21.69-0.84 42.3-14.44 60.36-23.8-21.04-1.36-44.96-4.72-67.13-4.48m-323.67 9.97c-39.74 21.58-89.41 21.4-125.64 48.99 23.65 1.97 49.88-10 74.91-12.24 18.18 2.67 27.31-16.33 40.38-25.45 2.45-3.36 12.46-8.54 10.35-11.3m419.66 3.01c-21.87 4.13-41.26 15.86-61.2 25.14 22.62 1.64 45.26-1.28 67.91-0.78 4.67-8.29 13.94-31.97-6.71-24.36m30.79 29.69c-5.25 9.29 3.06 23.96-1.59 33.69-6.93-0.92-10.78-9.51-14.98-14.59-26.33 13.41-54.83 25.57-79.78 39.9 36.19 1.88 75.81-0.57 113.32-1.44 1.46-17.41 0.45-35.39 0.16-52.95 0.27-8.89-11.85-3.53-17.13-4.61m-86.85 13.53c-11.79 1.58-24.52-1.53-35.7 1.55 1.7 10.99 2.01 24.16 9.58 32.65 25.59-2.35 48.91-19.7 68.48-33.89-12.55-2.62-28.75-0.55-42.36-0.31m-27.27 51.63c-13.97 8.14-13.86 28.57-11.07 41.59 32.9-0.73 66.18-8.75 95.41-24.14 3.74-3.65 12.75-7 12.74-12.36-31.25-1.91-62.58 1.7-93.85 0.41-2.41-0.3-1.13-6.05-3.23-5.5m111.5 22.08c-35.95 11.53-71.67 24.14-107.59 35.54-2.12-9.55-11.77-0.36-16.63 1.78-44.06 30.5-92.72 53.48-137.66 82.33-41.5 17.84-83.67 34.04-125.89 50.07-1.38 0.65-3.9 0.82-2.8 2.96 42.89-1.7 80.11-30.96 123.16-30.5 12.18-0.71-0.04 9.11-3.7 11.3-39.33 19.94-85.44 20.44-125.57 38.27-3.67 0.76-5.06 7.14 1.23 5.47 46.53 12.45 95.28 11.03 142.47 3.37 22.33-7.92 24.38-41.74 49.51-45.4 5.34 0.37 5.46-10.37-0.17-8.24-6.2 1.57-19.49 2.2-12.26-7.21 16.23-17.16 42.12-19.51 64.34-22.93 7.99-0.62 21.22-0.3 24.49 8.86-4.15 10.54-16.59 19.69-26.86 10.34-11.52 15.72-33.38 22.36-49.15 34.39-4.6 2.11-6.12 13.16 1.06 11.21 73.21-8.09 144.34-49.71 184.45-111.92 4.39-9.41-7.54-4.4-11.66-4.46-60.69 13.43-116.9 42.09-177.07 57.17-10.35 1.72 0.38-8.23 3.57-9.78 40.18-22.5 86.51-29.85 128.97-46.86 5.33-2.36 11.94 0.22 16.91-2.17 3.54-7.02-4.58-6.19-8.03-6.1-24.8 2.22-49.72 0.22-74.54 1.96-1.23-4.37 6.89-6.17 9.99-6.5 39.71-2.57 82.36 0.33 118.54-19.31 11.03-5.1 18.96-16.14 19.65-28.34 3.56-7.09-5.45-5.92-8.76-5.3m-506.37 16.16c-28.5 7.89-55.44 20.67-82.62 32.18-1.76 0.44-6.1 3.84-1.88 3.35 31.39-4.07 62.79-10.26 92.83-20.3 3.24-4.95 0.54-19.06-8.33-15.23m44.12 54.98c-28.16 6.38-53.84 21.35-81.03 31.12-8.51 2.51-18.35 8.15-21.26 16.39 44.95-0.94 87.38-18.76 127.67-37.04-3.24-10.93-15.95-11.8-25.38-10.47m48.99 28.01c-50.15 2.11-101.49 14.59-145.51 37.49 30.45 20.17 63.64 41.2 100.5 48.7 11.04 2.58 21.11-2.14 30.98-6.1 45.55-19.85 92.13-38.68 134.43-64.77-67.72-9.09-127.93 42.92-196.05 37.43-4.81-0.07-6.89-6.05-2.85-9.01 22.98-22.8 56.42-29 85.35-40.72 7.03-3.87-3.32-4.29-6.85-3.02m25.81 4.89c-23.59 9.25-46.8 19.56-70.34 28.98 0.03 0.65 0.11 1.97 0.14 2.62 36.15-1.35 71.7-13.07 104.99-25.93-10.86-4.39-23.21-5.03-34.79-5.67z"/>
</svg>
