<?xml version="1.0" encoding="UTF-8" standalone="no"?>
<svg id="svg2" xmlns:rdf="http://www.w3.org/1999/02/22-rdf-syntax-ns#" xmlns="http://www.w3.org/2000/svg" height="953pt" width="692pt" version="1.1" xmlns:cc="http://creativecommons.org/ns#" xmlns:dc="http://purl.org/dc/elements/1.1/" viewBox="0 0 692 953">
<path id="path4" d="m671.55 0h14.06c3.34 1.28 5.11 4.42 6.39 7.56v22.81c-10.49 60.35-42.18 114.26-55.95 173.66-45.45 99.38-91.3 198.6-137.19 297.78-17.71 25.24-33.47 52.28-41.87 82.18-22.1 76.17-74.19 138.88-100.92 213.08-15.53 35.96-28.6 73.03-47.38 107.5-8.29 13.86 1.44 35.93-16.77 43.6-26.26 4.81-53.98 1.05-80.62 4.83h-65.74c-22.07-1.82-43.91-5.89-65.43-11.01-5.22-2.43-13.34-5.26-13.95-12.01 3.15-17.98 13.12-33.71 20.81-49.98 34.28-63.88 71.51-126.19 103.96-191.05 8.87-18.69 17.92-37.77 20.21-58.59 18.06-44.74 47.93-84.85 58.84-132.36 18.18-64.84 35.95-129.81 54.44-194.56 17.08-38.96 44.56-72.24 69.65-106.26 1.18-1.88 8.19-8.37 2.28-8.6-56.38-7.48-113.41-4.08-170.02-1.49-6.62-0.37-5.82 14.04-13.26 9.88-33.32-11.08-69.06-13.11-103.92-14.56-11.34-2.24-24.1 15.27-32.36 4.4-21.33-4.03-52.64 23.95-67.46-1.29-12.98-47.8-4.62-98.38-9.35-147.06v-8.97c2.4-6.53 9.65-9.74 16.15-10.44 69.3-2.06 138.6-2.45 207.92-4.14 28.82-4.1 54.09 14.7 82.9 12.07 100.43-5.56 201.86-0.47 301.37-17.63 20.95-3.87 42.03-7.02 63.21-9.35m-628.69 38.23c0.32 8.77-0.76 17.88 1.68 26.42 14.98-0.01 29.98-4.93 45.17-2.11 28.74-14.49 63.1-6.3 92.05-16.87-43.5-0.35-95.14 8.32-138.9-7.44m293.52 8.08c-9.64 5.53-10.33 19.86-16.05 28.93 8.26 1.23 32.84-21.4 31.61 0.82 16.8-5.3 33.72-10.84 51.33-12.69 3.39-3.22-0.17-7.21-3.61-7.24-21.08-3.26-42.23-6.97-63.28-9.82m-34.84 1.16c-52.32 11.15-103.02 30.11-151.56 52.52-11.5 6.05-24.46 11.27-33.12 21.26-3.23 2.06-2.65 11.85 2.42 9.11 48.3-21.51 101.92-23.78 152.66-36.28 6.81-8.13 11.65-19.34 22.95-22.13 5.29-2.23-2.71-4.12-2.56-7.49-2.58-7.64 6.71-8.45 11.52-9.38 5.47-1.42 5.63-11.94-2.31-7.61m294.11 6.13c-66.2 3.11-132.54 13.8-195.2 35.83-14.08 5.13-28.46 10.89-39.76 20.96 40.08-0.32 81.52 0.03 120.98-9.67 44.54-16.81 91.28-27.86 134.82-47.21-6.9-1.14-13.94-0.57-20.84 0.09m49.75 1.57c-31.41 33.12-80.87 32.19-119.56 51.98 9.12 8.36 24.24 5.36 35.6 2.14 18.47-0.22 37.08 1.96 54.8 7.47 11.78-0.38 17.47-13.66 21.48-23.02 3.94-12.23 10.42-27.88 7.68-38.57m-490.85 12.36c-36.99 6.99-77.35 7.38-110.64 26.02 2.62 13.17 1.22 28.37 9.15 39.62 17.46 1.27 30.71-14.69 44.22-23.88 17.44-18.39 42.48-24.6 63.89-36.71 1.69-4.92-2.73-6.94-6.62-5.05m146.01 32.87c-20.65 10.79-29.71 34.59-44.62 51.53 20.85 8.54 44.88 3.78 66.97 5.09 29.34 0.65 55.09-15.86 81.97-24.2-33.55-2.12-71.04 1.96-105.78 0.39-12.14-8.14 3.28-20.4 10.37-25.77 7.5-5-5.06-8.12-8.91-7.04m-56.89 19.13c-46.91 4.42-90.64 24.23-137.4 29.65-0.71 4.19 5.95 4.39 8.92 5.63 28.87 5.51 58.86 5.92 88.09 3.58 23.71-2.82 36.51-25.26 54.45-37.85-0.59-4.88-10.59 0.29-14.06-1.01m240.93 10.86c-11.52 6.33-27.41 11.16-35.39 19.51 36.84-1.24 73.95 3.28 110.6-0.04 4.36-2.81 28.98-8.59 12.85-11.56-29.05-5.26-58.67-6.29-88.06-7.91m122.66 20.9c-26.08 9.42-54.52 11.39-79.51 23.9 9.58 6.77 29.05 0.29 36.07 13.17 4.17 7.36-5.18 12.49-11.22 14.23-38.45 12.16-78.96 15.48-118.11 24.62-1.24 0.41-5.71 2.34-2.35 2.84 20.78-0.2 42.78-0.2 62.06 8.64 7.97 3.88 7.26 16.06-1.21 18.49-29.53 10.18-60.95 12.78-91.74 16.98-1.39 2.09 1.27 2.71 2.85 2.9 26.34 3.26 52.1 11.13 75.86 22.94 6.78 3.96 17.42 10.41 13.26 20-7.75 15.81-29.86 13.99-44.61 18.63-27.64 6.79-62.93 1.69-83.73 23.36 25.84 5.08 53.03 7.05 77.71 17.42 11.68 2.68 31.79 20.85 12.58 27.82-31.93 15.5-66.45 25.64-101.26 31.7 1.82 7.46 9.43 10.72 16.48 10.72 24.32 0.88 48.94 3.9 72.49 9.43 1.57 7.89 6.09 25.22-6.39 26.67-26.9 8.48-55.49 8.31-83.02 13.78-4.37-2.65-5.5 2.65-3.47 4.38 19.01 13.99 46.13 6.45 64.87 21.21 8.17 9.99 3.88 26.55-9.43 29.34-37.09 11.06-76.38 10.64-113.75 20.13-4.48 0.98-13.59 8.05-7.77 12.45 26.99 7.14 57.61 7.12 80.94 24.21 7.99 5.24-1.65 12.58-6.57 15.09-24.26 12.08-52.9 10.9-79.08 7.83-2.29 1.93-8.1 2.71-6.97 6.79 25.7 0.96 52.52 6.75 73.58 22.18 7.16 6.05 4.27 17.34-3.97 20.85-31.33 19.39-69.09 28.64-104.62 32.98 23.13 15.14 56.97 10.3 81.36 25.79 1.75 9.52-8.07 15.39-15.68 18.15-28.78 12.7-60.99 11.76-91.17 18.09 18.2 5.44 38.54 6.72 57.68 9.58 17.26 1.82 40.8 4.68 50.55-13.65 47.45-100.09 97.16-199.13 144.86-299.11 4.53-13.45 7.54-27.39 12.16-40.8 32.55-64.33 65.83-128.29 98.42-192.6 15.16-26.21 25.76-54.87 32.76-84.27 0.23-2.25 2.09-6.84-0.91-6.86m-157.9 23.98c-12.41 4.55-10.52 21.22-16.43 31.02 31.92 0.99 66.43-3.82 96.02-13.25-21.59-8.15-47.09-12.98-70.89-8.05-10.01 4.78-2.98-10.74-8.7-9.72m-64.59 112.08c-17.07 9.35-18.58 33.51-20.94 51.08 32.56-10 70.11-9.14 101.35-23.37-8.29-6.21-16.73-12.66-25.86-17.46-18.75-1.3-35.34-13.99-54.55-10.25m-21.32 93.04c-25.28-3.46-31.86 28.88-29.35 46.41 34.77-12.67 74.48-11.28 106.86-31.11 0.3-3.96-5.44-5.11-8.05-6.77-22.34-7.05-46.08-9.92-69.46-8.53m-32.01 74.14c-11.53 2.39-8.29 21.2-11.12 30.61 29.67-1.39 60.78-0.02 88.58-12.27 1.77-0.43 1.15-3.08-0.44-3.28-23.71-11.94-50.89-14.35-77.02-15.06m-16.76 64.75c-12.41 9.08-20.03 27.5-18.71 42.62 33.13-5.33 66.66-12.57 97.12-27.04-1.15-4.27-6.67-5.5-10.51-6.47-22.44-4.06-44.98-9.78-67.9-9.11m-35.32 79.95c-6.47 2.81-9.98 11.82-8.81 18.14 14.88 1.56 30.85 1.1 45.94-0.92 0.75-2.94 2.4-8.5-1.89-9.05-11.8-2.31-23.62-5.61-35.24-8.17m-9.99 58.17c-18.47-2.59-20.46 21.52-23.34 34.4 20.92 2.31 43.78-3.63 64.04-10.66 9.02-1.77 9.81-11.84 5.05-18.05-13.62-8.08-30.67-5.84-45.75-5.69m-52.69 75.72c-6.42 8.48-9.69 19.43-14.68 28.96 25.48 2.27 51.35-6.74 76.41-11.62 1.94-4.03-4.92-6.09-7.5-7.44-17.22-6.46-35.87-9.82-54.23-9.9m-19.14 64.35c-15.68-1.65-26.57 15.15-21.52 28.35 33.55-6.74 66.82-16.01 100.22-23.95-23.9-6.2-52.89-4.97-78.7-4.4m100.76 18.86c-24.36 3.61-48.44 8.75-72.59 13.47-4.91 0.87-15.8 0.22-15.44 6.9 28.1-4.55 57.09-0.19 83.59 9.26 1.36-6.84 11.51-25.04 4.44-29.63m-111.77 33.04c-14.01 1-31.24 7.86-35.44 22.62 28.53-5.48 56.95-11.67 85.45-17.35 2.4 0 1.74-3.43-0.49-2.72-16.53-0.69-33.08-2.09-49.52-2.55m96.7 9.94c-28.71 3.44-58.22 5.56-85.32 16.46-3.16 1.58-10.25 4.73-7.17 9.28 9.16 6.66 21.14 13.3 32.72 8.47 9.38-4.42 19.1-14.11 30.23-9.3 4.51 6.97-6.23 12.26-11.62 13.89-37.17 9.31-75.9 1.42-113.34-1.09-10.22 7.22-0.01 22.33 10.27 22.97 34.44 5.77 70.81 5.92 104.69-3.3 24.26-8.11 35.66-32.8 42.3-55.56 0.35-1.79-1.4-2.24-2.76-1.82z"/>
</svg>
