<?xml version="1.0" encoding="UTF-8" standalone="no"?>
<svg id="svg2" xmlns:rdf="http://www.w3.org/1999/02/22-rdf-syntax-ns#" xmlns="http://www.w3.org/2000/svg" height="929pt" width="753pt" version="1.1" xmlns:cc="http://creativecommons.org/ns#" xmlns:dc="http://purl.org/dc/elements/1.1/" viewBox="0 0 753 929">
<path id="path4" d="m336.59 0h49.79c94.98 6.28 186.81 52.72 248.22 125.4 23.58 29.59 45.07 65.04 43.32 104.32-2.53 19.88-11.52 38.3-22.17 55.04-27.44 41.74-62.45 77.72-96.84 113.63 33.57-0.16 66.53 12.78 91.31 35.39 64.05 53.92 94.55 137.59 102.78 218.9v29.69c-1.52 23.04-17.35 47.23-8.43 69.16-15.56 15.44-25.02 35.89-34.76 55.26-22.97 43.4-66.28 70.86-111.66 86.36-24.81 9.68-49.92 18.88-75.78 25.33-60.29 8.15-121.35 7.46-181.98 10.52h-22.64c-25.28-8.61-55.09-5.47-77.2-22.57-14.22-11.28-32.06-15.47-48.93-21.04-64.96-22.61-128.04-60.43-164.52-120.48-15.98-23.91-24.05-52.16-27.1-80.54v-31.69c0.4-58.1 41.25-102.16 69.99-148.69 21.96-24.41 50.86-41.94 70.96-68.11 2.11-4.32 9.23-11.02 3.88-15.59-30-24.52-62.92-46.19-87.07-77.05-16.85-19.98-33.86-43.73-31.85-71.23 0.79-31.09 0.19-62.78 5.51-93.43 41.98-51.12 80.27-109.22 140.54-140.63 50.33-27.25 108.21-35.28 164.63-37.95m20.09 31.47c-11.25 3.24-23.54 9.28-29.63 19.46 5.84 4.68 12.91 14.43 21.94 11.19 25.99-2.37 51.66-12.67 72.9-26.25-18.67-5.35-43.94-4.78-65.21-4.4m101.48 8.57c-3.3 7.59-6.31 16.27-15.23 18.99-32.65 13.46-69.16 9.76-102.81 19.01-3.55 2.13-11.43 3.86-9.81 8.75 25.01 0.3 48.53-9.32 72.86-13.61 21.98-2.98 44.29-0.07 66.29 1.38 1.62 3.22-1.95 12.77 4.34 11.33 11.19-0.55 6.37-16.65 16.31-19.95 2.41-2.72 11-1.61 10.42-5.6-16.17-2.09-26.39-17.54-42.37-20.3m-187.55 3.53c-46.99 1.44-86.42 28.77-126.67 49.64 3.28 5.15 13.41 2.71 18.19-0.09 4.64-5.56 10.47 3.35 15.98-0.15 31.14-7.27 62.75-12.9 93.27-22.56 8.43-3.75 19.53-5.25 24.56-13.66-2.71-4.91-0.22-9.08 0.87-13.8-8.73-0.2-17.49-0.14-26.2 0.62m253.4 21.53c-2.46 20.2-23.54 26.36-40.02 32.13 12.84 8.46 38.48-8.08 50.52 7.65 10.89-1.57 21.33-5.8 31.41-10.15 0.62-3.05-2.94-3.49-4.84-4.82-13.6-6.57-21.36-22.14-37.07-24.81m-229.45 9.29c-12.76 1.13-25.77 1.58-38.17 4.99-8.69 2.31-14.62 10.51-23.92 11.11-38.74 6.95-77.79 12.87-115.9 22.77-17.21 13.89-27.76 35.3-49.63 43.18 0.59 12.17-1.38 26.08 1.14 37.33 16.71-7.45 34.62-15.54 50.28-25.63-9.82 1.57-26.34 9.81-32.11 0.31 21.44-13.41 55.1-11.15 68.58-36.62 14.02-8.03 30.07-12.15 45.9-15.04-13 11.54-45.9 13.22-41.75 36.92 40.87-20.1 87.74-25.87 129.78-43.95-0.25-3.87-6.03-5.18-9.27-6.46-17.92-3.61-28.15 23.79-46.27 13.64-7.65-8.05-9.95 14.64-15.72 5.26-3.53-13.85 14.22-17.42 24.15-19.34 21.21-8.75 42.24-18.08 63.3-27.21 0.31-4.77-8 0.24-10.39-1.26m97.94 16.12c-37.05 2.98-80.47 4.16-107.28 33.79-43.06 14.21-84.54 32.7-127.41 47.4-6.04 1.69-7.07-13.17-11.85-6.72-9.08 13.38-26.25 17.86-36.8 29.1 32.92-4.39 63.63-18.96 96.59-23.04-2.22 8.02-15.77 7.66-19.77 14.93 43.39-19.02 81.05-49.47 124.64-68.35 39.65-14.29 85.31-0.37 123.19-20.96-5.34-13.9-29.71-3.75-41.31-6.15m187.83 26.83c-14.78 1.61-27.34 9.85-40.92 15.04-27.94 9.85-59.43 4.04-86.65 15.91 47.22-1.2 96.93 2.07 144.38-7.23 2.83-2.42 12.24 2 11.78-3.73-9.79-6.05-17.78-16.99-28.59-19.99m-107.78 2.19c-14.02 0.54-27.73 3.73-41.36 6.79-0.2 14.42 20.49 12.21 30.06 11.05 14.15-2.48 34.26-2.08 41.64-16.31-8.41-3.68-20.76-1.62-30.34-1.53m-115.8 16.92c-27.66 5.83-55.26 13.95-80.54 26.71-11.31 16.19-22.44 32.62-32.83 49.39-1.79 18.96-10.92 38.06-2.84 56.9 12.23 29.51 41.14 46.24 65.8 64.23 18.22 8.9 39.34 19.4 59.74 11.38 49.38-28.15 90.85-83.94 78.08-143.29-17.39-31.66-48.43-66.5-87.41-65.32m177.78 23.08c-24.63 2.86-52.07 0.44-74.46 12.51 3.87 6.16 7.65 12.41 11.77 18.4 18.56 3.2 33.57-17.28 51.85-12.28-3.15 9.34-17.75 13.75-21.47 22.63 31.22 4.67 62.56-5.03 93.92-1.88 11.75 1.53 21.86-5.85 31.77-10.93-5.15-9.14-8.45-19.15-12.22-28.8-26.94 8.06-54.22 25.02-81.61 25.95 11.15-3.09 21.61-32.14 0.45-25.6m-387.96 37.92c-26.46 2.21-52.19 9.74-78.86 9.99-1.14 7.62 0.72 17.39 1.06 25.6 27.53-11.11 54.79-22.94 82.34-34.01 3.29-1.94-3.22-3.94-4.54-1.58m412.12 10.09c-24.75 3.04-49.09 8.68-73.35 14.31-3.23 4-8.23 10.65-5.33 15.85 34.03-0.46 64.45-17.29 95.95-27.82-1.88-5.77-12.43-1.97-17.27-2.34m-403.55 8.87c-25.99 19.74-59.08 24.17-89.95 31.51-5.78 2.07-2.57 9.32-1.92 13.88 27.84-4.01 54.28-15.68 79.34-28.18 5.84-3.05 18.72-10.82 12.53-17.21m471.48 3.1c-45.58 17.17-96.95 12.51-142.53 30.44-2.7 2.16-9.57 2.48-8.9 7.02 27.79 3.81 54.36-7.11 81.96-5.95 3.29 1.12 3.71 4.74 4.67 7.59 16.53 0.68 33.14-1.66 49.72-0.51 4.95 2.68 0.39 11.27-5.4 8.19-43.23-0.37-82.84 27.45-125.06 24.85 16.85-10.13 39.96-14.84 58.42-24.65-18.41-0.93-37.94-0.44-55.16 6.89-31.63 16.32-38.31 56.71-66.18 76.76 38.75-2.11 80.63-11.99 117.73-27.19 14.47-3.2 5.82-19.58-5.05-16.31-15.26 12.74-36.22 2.7-54 4.59-8.58 4.2-9.96-11.15-1.99-9.48 38.26-0.69 76.14-7.05 114.41-7.56 31 5.4 38.89-31.67 60.79-44.98-16.64-3.02-5.36-32.06-23.43-29.7m-423.1 8.91c-32.6 12.48-68.74 16.38-99.68 32.92 4.18 6.24 21.88-4.64 21.74 7.16 14.58-1.46 28.72-9.57 43.79-10.18 15.95 10.65 43.58-5.3 38.17-25.68 2.37-4.82-1.71-4.99-4.02-4.22m1.77 43.94c-27.16 6.2-55.03 12.68-79.38 26.71-8.09 2.47 1.06 5.92 3.75 3.7 30.01-2.97 62.45-2.69 89.32-18.09-1.48-5.43-7.72-12.25-13.69-12.32m-121.71 10.14c-18.77-3.44-15.8 17.5-7.6 26.66 7.06-15.88 28.1-16.21 39.85-25.29-8.62-2.4-22.11-1.58-32.25-1.37m89.01 26.9c-29.91 2.84-60.45 3.4-89.63 10.96 2.68 13.06 17.66 24.2 31.2 21.1 25.62-5.67 48.16-19.92 71.75-30.76-1.2-4.4-9.8-0.09-13.32-1.3m52.87 3.21c-28.89 8.12-61.69 14.1-85.49 31.42 29.9 2.7 61.73-3.21 91.89-8.18 6.89-2.58 21.56-2.45 21.96-12.45-7.71-6.37-18.22-10.85-28.36-10.79m345.92 20.98c-23.19 8.83-46.13 19.67-65.62 35.17-7.94 3.96 6.2 7.95 1.06 12.92-14.51 16.56-37.72 18.4-57.71 23.41-44.43 11.83-95.03 16.11-129.94 49.1-7.25 3.62-0.72 12.32 5.62 8.69 53.27-8.07 105.67-21.96 157.11-37.98 12.99-5.68 30.34-7.62 37.23-21.8 15-24.3 34.14-45.59 52.63-67.23 0.7-1 1.84-3.58-0.38-2.28m-283.91 9.93c-17.25 6.07-35.15 14.95-46.93 29.28-3.84 18.69 29.72 1.16 29.84 15.52-25.27 11.46-54.42 13.38-81.41 19.61 8.92 5.62 24.9 13.94 19.86 27.55-16.09 15.64-43.42 10.93-59.65 26.82-1.27 1.57-3.89 7.65 0.37 6.09 54.89-17.39 106.71-45.17 163.86-55.12 21.57 0.19 44.3 1.74 64.58-7.21 2.73-1.67 8.53-7.01 4.64-9.82-25.7 0.2-52.98 6.87-77.57 6.9 17.81-12.57 49.72-8.88 63.74-27.74-20.13 9.67-30.91-15.62-50.54-11.51-9.17-2.85-5.24 12.25-13.22 11.96-10.92 1.34-14.03-11.1-6.77-17.61 6.93-6.8-3.12-17.09-10.8-14.72m-79.81 9.06c-25.27 1.34-52.31 1.3-74.71 14.76 3.87 18.25 25.92 30.94 43.76 26.59 19.16-9.88 39.29-21.72 51.39-40.02-4.21-5.03-14.44-0.47-20.44-1.33m252.74 16.82c-10.3 3.38-21.8 5.39-31.09 9.82 4.86 2.86 16.54-0.5 23.4 0.69 11.21-4.53 1.94 11.88 10.51 10.23 2.65 0.18 13.56 1.36 8.07-3.4-7.02-3.27-3.26-17.52-10.89-17.34m102.96 50.9c-25.06 19.63-55.44 30.51-82.54 46.75-6.22 0.06-2.1 4.65 0.28 3.83 29.47-2.7 59.13-11.53 83.87-27.92-16.44-7.14 9.22-18.16-1.61-22.66m-260.68 13.25c-41.01 4.01-84.83 8.77-120.03 31.95 8.83 0.56 17.3-9.36 26.34-3.53 11.85 9.21 22.52-6.57 35-4 8.43 0.53 22.71-0.92 24.82 10.06-2.1 6.5-10.75 7.49-15.82 10.97-30.79 16.37-64.76 25.43-97.64 35.56 3.88-23.35 36.13-19.54 46.45-36.48-33.66 13.12-81.37 5.6-100.85 42.77 13.83-4.79 26.91-12.09 41.46-14.64 4.5-3.61 5.82 2.02 2.71 2.88-17.47 10.03-37.97 14.15-54.67 25.59-3.8 0.64-0.7 3.45 0.96 3.28 21.38 0.73 42.29-5.2 61.64-13.91 30.92-13.8 65.89-15.9 99.07-11.26 4.05 0.53 11.97 4.03 7.68 8.87-18.64 15.19-41.9 23.34-64.53 30.61-14.04 3.08-29.63 10.14-43.43 2.46 4.26-17.06 42.61-4.64 34.99-24.72-25.86 2.57-51.48 7.45-76.87 12.95-15.2 3.37-31.82 8.41-41.31 21.7-19.95 26.72-29.5 59.78-33.56 92.51 0.88 29.36 8.7 59.05 24.85 83.8 4.09 5.02 9.94 12.36 17.29 10.49 11.84-8.96 22.75-22.02 36.62-27.11 6.31 13.04-15.86 14.65-19.56 21.59 27.27 0.9 54.09-4.96 80.49-10.83-0.67 7.82-9.96 11.61-16.37 14.29-27.53 9.32-56.98 7.86-85.28 12.87 1.56 9.34 9 18.61 16.92 23.65 38.17-17.93 83.34-21.07 118.04-46.3-8.15-2.13-16.69 0.83-24.98 1.38 3.55-9.53 21.26-3.99 25.39-13.95 0.36-8.53 2.09-19.59-4.38-26.31-19.09-7.04-35.02 10.17-53.13 12.24-6.87 4.15-8.6-9.92-2.03-4.81 21.2 4.07 34.77-20.2 39.62-37.55 1.88-5.82-6.85-3.05-9.78-2.9-42.85 1.63-82.85 35.22-126.15 20.92 2.72-9.58 16.37-16.29 24.39-7.92 33.27-14.69 73.45-5.42 104.37-26.31 15.46-9.56 21.22-28.8 19.59-46.1-10.75 0.33-20.47 6.96-30.8 9.65-4.25-4.16-9.75-4.72-15.26-2.31 10.14-16.65 40.7-10.14 49.81-28.5-37.15-7.44-72.38 12.19-109.12 10.38-2.11-15.42 18.99-14.23 28.7-19.2 8.4-1.96 5.59 15.48 15.95 9.1 28.54-8.36 60.88-20.47 89.73-7.45 10.09-16.79 19.87-35.42 36.85-46.14 8.91-1.95 7.47-14.19 16.07-16.97 15.07-10.52 41.9-20.22 38.21-42.71-6.81 2.05-15.1 1.57-21.25 4.73 7.75 1.76 10.86 8.31 1.92 9.91-7.21 3.79-34.03 16.45-26.79 0.28-9.57-5.75 3.13-11.94 9.25-13.81 17.1-4.5 14.6-26.04 26.7-36.2 7.57-7.46-2.4-6.99-8.29-5.52m194.78 2.9c-29.34 14.17-67.01 6.89-93.35 25.39 13.34 8.04 28.32 16.05 43.66 20.13 17.77-11.02 31.76-27.82 47.98-41.2 1.05-0.7 5.24-5.57 1.71-4.32m106.27 22.03c-34.16 13.22-59.68 43.7-95.18 55.03-4.65 0.24-3.74 5.09-1.12 7.42 12.85 1.49 25.02-9.49 37.25-5.81-3.46 10.4-16.03 17.07-26.6 19.23 2.51 8.51-0.24 37.39 15.01 26.75 36.16-18.38 78.49-32.25 105.12-63.78-26.01 9.99-52.4 19.11-79.32 26.31-3.52 0.46-0.71-4.19 0.17-5.53 13.98-22.85 42.04-31.69 67.17-35.04 12.17-4.56 30.95 8.18 20.54 20.71-32.17 28.22-75.06 40.58-109.92 65.02-2.74 3.1-8.43 6.77-6.35 11.65 10.68 1.73 25.28-4.06 33.66 1.3-10.12 4.95-20.61 9.26-30.15 15.3 14.95 11.9 9.91 31.9 16.42 47.7 14.72-11.51 25.13 9.14 41.32-0.83 38.34-16.24 73.43-40.99 114.2-50.99-4.72-19.53-9.62-40.53-18.99-57.97-9.12 8.31 3.19 27.8-6.09 37.37-5.71-3.36-5.03-10.75-6.51-16.33-17.23 28.2-52.18 35.09-72.79 59.83-4.91 0.38-3.37-7.5-2.57-10.64 9.11-16.58 33.38-19.29 42.82-33.68-12.77-10.99-34.52 7.61-47.64 0.73 21.3-18.17 48.72-31.44 69.06-51.89 7.44-7.02 4.98-18.49 2.66-27.21-9.28-24.15-37.41-37.11-62.17-34.65m-74.23 11c-4.29 2.2-8.37 5.23-13.24 5.92-16.02-0.64-26.29 13.41-37.06 23.02 0.02 4.31 2.96 8.57 6.12 11.41 16.62-1.65 35.97-4.79 46.7-18.92 4.35-5.82 4.7-20.18-2.52-21.43m-154.88 18.99c-36.08 4.83-60.58 35.42-83.19 60.97-18.36 19.62-31.78 47.17-58.36 56.55-9.11 8.77-7.78 22.94-9.77 34.39-0.18 25.89 1.84 55.28 22.51 73.82 33.61 26.73 70.27 51.26 112.53 61.58 38.03-0.47 77.49-3.81 112.49-19.96 33.39-15.35 47.42-54.16 49.1-88.53-6.61-44.3-17.03-91.08-47.74-125.48-23.42-24.51-54.35-40.09-85.37-52.73-3.84-1.64-8.19-0.97-12.2-0.61m299.9 127.97c-26.34 16.38-62.66 17.86-82.52 43.44 8.13-1.94 15.94-5.11 24.21-6.51-6.95 11.54-14.46 38.53-32.46 25.7-18.3 19-54.29 30.75-49.57 63.23 6.35 5.82 17 5.18 23.83 10.8-2.58 6.73-13.65 10.48-9.95 18.57 12.3 8.03 28.58 3.82 42.32 5.79 2.06 2.54 0.15 6.19-3.19 5.85-43.91 6.86-79.73 35.27-121.6 48.18-6.01 0.99-1.82 7.92-4.13 11.8-6.6 10.42-22.4 12.33-28.22 22.36 11.64-1.35 21.99-8.65 33.69-9.32-0.48 29.43-37.93 24.65-55.27 38.64 13.07 7.07 28.45 5.33 42.67 4.34 50.73-1.66 103.98-4.96 149.67-29.32 16.71-8.36 30.43-21.9 40.31-37.66 7.68-12.59 25.71-16.6 28.53-32.47 0.56-4.28-5.15-2.81-7.72-1.89-56.05 23.51-112.06 47.24-169.24 67.89-7.22 2.5-14.68 4.87-22.38 4.78 0.57-12.44 14.47-20.34 23.64-26.5 54.51-30.16 116.25-42.85 174.54-63.45 10.3-4.64 29.37-8.55 24.62-23.56-16.47 9.76-35.72 14.37-54.82 13.68-2.16-4.77 4.22-7.98 7.57-9.94 19.05-8.46 40.97-8.3 59.48-18.21 6.55-3.77 12.67-20.52 1.23-20.57-13.25-4.61-18.68 13.43-30.76 14.96-26.23 6.27-52.47 12.6-78.26 20.52-6.61 1.49-12.08 9.93-19.4 6.29-4.92-5.85-4.9-18.89 3.92-20.75 6.46-2.9 3.55 9.57 9.64 5.04 13.6-8.58 13.66-32.94 31.8-35.11-1.82 10.16-7.45 19.25-10.63 29.01 10.29 2.5 22.01 0.28 29.62-7.43 16.19-14.4 36.71-23.31 58.02-26.69 20.47-8.09 16.48-35.24 15.02-52.68 1.54-12.68-15.14 4.1-18.64-2.94 5.85-3.69 15.3-7.73 16.5-14.91-30.47-1.29-52.26 30.29-83.58 22.81-4.12-3.33-0.86-9.91 2.17-13.07 11.11-8.21 25.55-10.13 36.67-18.36 1.81-2.86 6.24-10.41 2.67-12.34m-445.16 133.15c-31.8 7.18-60.98 22.88-89.56 38.2-7.43 5.29-17.79 8.27-21.65 17.19 5.29 14.33 24.59 3.43 35.55 4.35 1.44 5.2-6.08 5.08-7.95 8.57 3.56 1.28 7.43 5.42 11.45 3.43 28.44-16.08 57.08-31.83 85.65-47.66-9.2-6.62-26.62 2.6-37.29 3.53-1.69-18.44 23.86-13.63 33.66-23.13-2.38-2.79-5.79-5.97-9.86-4.48m54.16 26.92c-25.58 1.98-49.98 11.41-72.36 23.53-8.76 3.34-2.51 16.82-10.86 20.48-7.39 3.93-15.08-1.43-22.11-3.21-1.43 8.8-9.85 12.13-16.36 16.65 14.1 10.1 24.12 27.62 42.15 31.01 18.19-3.9 34.15-16.43 53.38-17.44 7.12 0.36 5.41-9.29 3.54-13.5-12.86 0.59-22.41 13.97-34.83 13.31 16.97-8.7 31.54-26.84 51.42-27.27-0.3 7.73-6.02 15.79-2.89 24.28 20.2 4.26 29.36-23.54 49.49-19.86-30.31 13.45-53.38 43.71-89.4 42.04-2.2 7.57 8.76 11.82 14.18 14.6 37.15 14.12 77.4 18.23 116.88 18.8 10.25 1.13 18.18-6.89 21.09-16.05 19.1-16.23 42.65-27 61.57-43.62 8.17-25.58 45.41-22.48 56.33-45.28-30.09 0.72-54.77 19.62-79.81 33.95-32.58 19.06-64.06 43.2-101.97 50.14-5.01 0.52-18.17 3.08-16.64-5.57 11.51-13.13 26.71-23.42 43.36-28.82 8.63-3.84 6.38 10.76 13.17 11.27 24.74-22.29 54.94-41.14 88.35-46.71 6.4 2.25 5.27-4.31 2.39-6.31-28.67 3.62-56.97 10.71-83.6 21.97 3.03-7.16 14.88-10.09 13.84-19.4-7.09-5.8-15.85-0.67-21.67 4.33-4.26-9.74-13.08-5.8-18.36 1.13-20.6-6.68-37.97 11.04-55.8 17.77-6.86-10.51 23.13-15.82 11.88-24.76-26.2-4.99-52.26 2.93-78.02 6.87-8.77 0.58 0.98-10.25 4.92-10.15 18.94-5.92 39.8-7.17 59.27-3.64 7.4 1.46 13.31-7.27 12.3-13.5-9.85 3.07-4.84-12.37-14.83-7.04z"/>
</svg>
