<?xml version="1.0" encoding="UTF-8" standalone="no"?>
<svg id="svg2" xmlns:rdf="http://www.w3.org/1999/02/22-rdf-syntax-ns#" xmlns="http://www.w3.org/2000/svg" height="952pt" width="758pt" version="1.1" xmlns:cc="http://creativecommons.org/ns#" xmlns:dc="http://purl.org/dc/elements/1.1/" viewBox="0 0 758 952">
<path id="path4" d="m402.62 0h45.57c24.07 3.24 42.21 22.64 66.49 25.37 15.74 0.87 27.7 11.94 41.09 18.85 18.81 11.61 38.7 21.54 56.86 34.12 26.62 26.78 54.21 52.75 84.07 75.95 13.06 8.96 19.4 24.11 26.2 37.8 29.51 69.52 30.71 146.51 35.1 220.62v44.72c1.02 82.4-37.67 158.2-82.98 224.59-36.97 53.43-73.9 107.84-120.98 153.03-67.74 63.98-157.19 98.68-247.24 116.95h-2.68c-24.18-7.74-42-26.9-62.56-40.57-26.53-10.61-52.72-23.14-75.44-40.6-9.65-9.39-0.93-23.33 10.44-25.3 12.53-8.3 37.49-3.03 38.42-23.27 10.4-14.02 27.02-21.29 42.04-29.23 86.72-50.09 145.62-137.79 179.72-230.05-110.48 6.97-228.42-11.52-319.77-77.95-67.52-48.83-111.39-127.54-116.97-210.73v-27.61c9.31-24.19 7.97-51.75 23.2-73.48 33.01-63.41 90.68-112.74 157.57-137.44 70.52-27.5 147.09-31.64 221.85-35.77m26.01 35.52c-22.88 5.65-47.6 10.48-69.44 16.8 26.73-2.56 61.29 6.87 87.83-6.33-3.73-6.02-10.77-12.66-18.39-10.47m70.01 20.93c-39.25 12.68-76.37 31.72-116.2 42.95-2.78-0.09-15.52 6.44-6.93 5.23 39.52-1.39 78.09-20.09 117.82-10.94 17.58 3.32 35.75-0.05 52.83-4.45 4.27-0.72 10.07-6.33 4.13-9.47-14.84-11.31-31.75-25.55-51.65-23.32m-109.21 11.94c-13.5 0.38-26.8 2.63-39.79 6.27-28.41 4.56-56.94-2.7-85.4-2.5-17.27 0.46-33.52 7.14-50.7 8.33-0.96 2.07-1.17 5.1 1.85 5.11 29.04 7.2 59.55 2.15 89.13 2.86 6.48-3.83 5.04 3.69 2.28 5.39-27.15 27.68-68.69 28.84-102.76 43.08-2.24 0.7-12.1 6.37-5.1 6.2 23.01-2.29 46.15-0.05 69.17-1.89 3.33-2.09 12.32 2.91 7.51 6.41-23.42 6.19-43.67 20.09-66.57 27.65 9.5 1.61 20.73-5.65 31.07-5.28 9.66-2.17 17.44 4.82 26.48 5.77 10.04-9.54 20.25-19.91 33.69-24.48 41.4-15.29 86.36-15.69 128.71-27.2 1.22-1.79 8.19-0.35 6.85-4.07-41.85-0.56-84.08 2.83-125.69 1.05-11.1-3.04 3.46-10.5 6.71-13.26 33.72-19.33 74.77-19.17 109.12-37.1-8.7-4.2-25.29-1.59-36.56-2.34m-213.83 22.13c-5.29-0.3-23.99 4.43-14.09 11.33 12.73-0.86 25.83-3.14 36.76-10.11-4.54-5.19-16.06-0.23-22.67-1.22m389.15 4.91c-11.65 5.13-17.75 18.3-30.74 21.72 11.05 4.28 26.56 0.22 38.72-1.06 14.3-1.67 3.86-26.66-7.98-20.66m-422.02 3.1c-2.55 0.65-6.06 0.68-7.69 2.86 2.7 5.23 20.06-3.64 7.69-2.86m80.86 8c-36.54 1.28-71.11 15.53-107.77 15.71-13.47 9.42-26.7 22.06-36.59 34.69 51.36-12.62 101.97-28.91 152.64-44.21 5.08-6.45-3.61-8.33-8.28-6.19m351.07 22.99c-28.32 2.97-56.83 3.84-85 8.05-2.47 3.45 1.27 6.55 4.34 7.56 9.59 3.65 19.82 10.03 30.36 6.31 21.39-5.2 44.36-8.16 63.02-20.61-2.76-4.02-8.86-0.71-12.72-1.31m28.97 17.02c-18.84 2.31-39.68 8.17-55.58 16.59 28.57 1.54 61.04 0.86 90.38-5.74-0.36-15.99-24.64-11.07-34.8-10.85m-217.11 15.87c-49.96 3.8-105.19 23.78-128.43 71.68-11.11 20.54-7.87 44.47-12.68 66.36-7 13.22-14.7 30.32-5.24 44.4 13.97 13.89 36.29 7.41 52.65 13.43-2.59 10.46-18.09 15.65-21.5 25.28 20.6 22.34 54.88 20.73 82.72 21.49 31.2 5.11 56.03-17.19 83.58-27.42 15.61-7.9 34.3-13.3 43.17-29.86 20.44-36.38 27.18-78.73 29.85-119.87-0.53-23.93-17.67-44.07-36.57-56.95-13.58-9.9-31.39-0.22-46.27-5.63-13.19-4.98-27.51-3.39-41.28-2.91m-231.88 4.15c-30.2 1.47-59.91 10.74-90.33 6.53-5.3 10.63-9.72 22.29-13.37 33.76 35.59-16.7 77.28-16.94 111.17-38 6.6-3.74-5.54-2.72-7.47-2.29m440.91 8.99c-19.91 2.24-44.02-5.38-59.62 11.15-0.4 12.95 15.5 19.29 26.38 16.69 30.48-4.8 59.04-17.17 87.86-27.73-17.49-1.43-36.57-0.77-54.62-0.11m70.9 9.81c-36.56 13.09-73.19 26.09-109.73 39.27-1.16 0.37-4.63 2.09-1.61 2.41 40.81-1.37 81.44 3.78 122.25 3.18 2.79 7.91 7.25 19.91 0.88 27.13-41.49 15.56-85.08 27.12-126.12 42.96 47.97 0.59 99.95 1.52 149.44 4.4 1.9-19.21-1.16-38.53-0.96-57.77-13.82-15.78-14.6-38.13-24.34-56.14-2.47-2.67-5.64-6.81-9.81-5.44m-471.81 15.18c-46.49 2.7-92.12 12.77-138.16 18.99-6.99-0.21-19.78 0.53-18.15 10.9-0.6 25.16-2.94 53.74 13.94 74.7 29.88-12.94 63.61-14.87 92.58-30.23 3.9-2.8 9.9-5.53 9.93-10.99-31.49-0.52-60.99 19.73-92.67 11.09-7.75-2.86-7.56-12.99-1.34-17.25 27.1-16.81 58.66-23.49 88.57-33.36 16.96-7.78 33.85-15.78 51.07-23.01 2.58-3.82-5.86 0.82-5.77-0.84m30.89 11.01c-36.25 13.72-73.24 25.8-108.89 40.93 33.61-1.2 66.28-11.96 98.82-19.85 2.71-6.08 13.31-17.25 10.07-21.08m352.06 26.8c-11.1 3.47-27.3 5.42-32.65 17.03 2.2 8.94-4.74 33.95 13.3 28.31 36.45-12.07 73-23.89 109.46-35.95-0.01-0.61-0.02-1.82-0.02-2.43-29.41-6.98-60.05-6.95-90.09-6.96m-378.11 29.25c-30.96 6.45-60.77 18.44-88.9 32.8-2.21 0.36-4 4.5-0.54 3.75 30.01-1.67 63.94-0.51 88.76-20.29 3.85-2.79 11.68-19.24 0.68-16.26m-15.88 42.93c-41.11 5.53-83.36 8.13-122.65 22.22-12.76 2.93-7.1 17.17-0.02 22.44 10.71 24.21 21.1 48.66 32.06 72.78 1.94 3.5 6.38 11.54 10.86 5.95 32.52-23.12 80.61-22.3 105.06-55.96-37.12-2.6-77.57 14.41-115.67 4.95-5.01-1.03-16.37-7.84-8.03-12.66 32.57-21.74 73.01-30.77 103.5-55.47 5.19-3.95-1.08-6.54-5.11-4.25m379.87 2.89c-10.15 1.94-21.55-0.51-31.13 3.89-10.53 8.54-8.3 24.38-8 36.25 10.88 1.5 22.21 0.56 32.78-2.49 39.18-9.37 78.42-18.52 117.6-27.9 2.38-1.18 5.51-3.2 5.32-6.31-38.94 5.43-77.63-5.93-116.57-3.44m134 21.17c-29.58 5.94-57.94 16.84-87.62 22.26-37.75 7.44-80.78 4.38-113.48 26.48 58.62 1.27 120.98-14.6 181.12-6.85 7.26 0.75 15.51 5.76 14.25 14.03-5.39 10.27-18.1 12.3-28.09 16.15-51.54 17.63-108.16 24.07-158.64 40.44 53.34 0.65 109.78-2.84 164.25-1.77 3.31 1.51 10.64 3 8.18 8.01-46.32 21.4-100.67 15.42-147.11 36.15 12.82 4.63 34.16-0.75 50.2 0.87 1.36 4.73 1.61 12.87-6.12 9.19-31.7-6.07-62.76 5.16-93.29 10.56 2.76 2.89 11.54 4.5 8.88 11.96 3.68 12.93-18.65 17-12.61 28.51 63.4-13.79 126.68-30.5 189.52-47.7 0.91-1.92-0.96-2.29-2.41-2.59-21.58-0.98-43.37-1.63-64.63-5.81-1.75-0.76-5.04-2.16-3.62-4.5 26.17-0.3 52.64-2.45 78.68-0.16 3.31 3.69 14.35 9.27 7.46 14.51-30.54 27.5-74.18 30.68-112.8 38.25-18.73 4.48-43.2 1.49-56.44 17.53 55.47-10.92 112.5-4.23 168.6-8.13 5.95-4.09 11.19 10.53 14.31 2.15 12.38-37.52 18.45-77.05 21.75-116.39 1.69-34.34-7.74-67.68-14.48-101.03-0.24-3.01-3.21-3.14-5.86-2.12m-513.82 3.82c-22.35 4.87-43.94 14.94-62.61 27.89 22.6-0.03 48.39 0.4 72.11-1.63 9.05-7.14 3.18-29.88-9.5-26.26m369.99 47.21c-35.54 1.61-78.76-1.56-105.72 26.59 7.3 3.83 27.29 0.8 20.86 16.37-64.98 33.49-138.33 51.46-202.92 85.43 72.23-14.78 146.22-24.51 215.51-50.67 0.92-4.41-10.7 1.54-12.81-3.19-3.75-10.03 4.41-18.79 12.76-22.86 28.42-13.83 60.57-17.28 91.81-17.58 31.2-10.87 63.38-20.87 93.75-33.03-35.81-0.53-75.82-2.02-113.24-1.06m-335.77 14.84c-19.6 8.26-41.06 16.54-57.72 28.72 26.12-4.36 51.53-12.1 77.37-17.78 3.39-11.36-12.28-13.15-19.65-10.94m46.78 28.09c-47.91 2.56-96.34 8.53-141.44 25.69 0.92 5.05 9.52 4.97 12.68 8.86 7.73 3.66 13.16 15.29 22.84 11.77 38.88-14.93 81.39-22.18 117.25-43.95 3.54-5.92-8.67-1.62-11.33-2.37m36.92 9.98c-8.8-0.51-21.64 2.93-22.02 13.2 14.73-0.14 29.74-3.8 42.72-10.93-4.14-5.14-14.86-1.47-20.7-2.27m57.09 11.01c-58.25 5.98-109.52 40.77-168.12 44.96-0.94 7.27 11 8.7 16.48 9.46 60.87 7.59 112.31-30.42 165.8-52.26-0.54-5.14-10.71-1.72-14.16-2.16m164.7 22.82c-75.27 18.12-152.12 38.38-226.43 55.51 5.46 9.47 18.98 8.58 28.32 9.91 31.63-0.13 63.37 2.6 94.9 1.63 19.68-11.7 32.51-32.08 51.12-45.16 17.69-6.19 36.55-8.41 54.55-13.48 2.47-2.15 2.44-10.36-2.46-8.41m32.17 95.06c-28.11 3.23-56.2 7.42-83.91 13.03-8.02 9.02-13.32 21.1-13.28 33.23 22.39-0.55 44.65-5.13 65.78-12.55 38.49-13.66 79.03-19.96 118.32-30.65 1.66-3.23-3.9-0.32-5.65-0.7-27.28 5.26-54.02-5.08-81.26-2.36m127.87 7.95c-47.37 14.18-95.91 25.22-144.05 36.81 2.43 5.58 12.88 8.51 19.01 5.29 19.01-2.45 39.6-11.1 57.61-0.48 3.49 1.09 9.89 6.56 4.85 9.85-31 20.44-68.26 28.18-104.06 35.93-21.77 3.41-45.57 9.29-66.47 7.6 38.88-21.35 91.86-13.67 129.37-39.73-29.64-1.43-68.43 5.42-97.09-8.84-22.36 18.57-63.45 24.52-65.46 60.15 6.86 8.85 37.39-9.57 28.5 13.6-16.66 1.18-43.12-1.9-49.45 18.38 46.64-0.81 93.16-7.32 138.77-16.96 2.5-1.59 10.36-0.61 8.89-5.66-9.02-4.45-25.56 4.18-18.45-13.76 20.16-2.87 40.63-1.15 60.93-1.52 9.9 6.8 3.04 22.28-8.19 23.12-36.36 9.67-74.35 11.53-110.73 21.2-8.96 2.29-16.51 8.13-21.87 15.43-23.7 0.64-47.6-0.43-71.21 2.14-17.89 4.79-19.72 26.82-33.63 36.82-4.89 4.64 4.78 4.1 8.04 3.92 64.97-8.35 128.82-23.67 192.49-38.77-23.63-6.13-53.59-3.72-79.45-5.17-1.89-2.13-2.87-5.76 0.79-6.5 21.54-2.75 43.67-6.24 65.24-3.11 10.37 6.2 19.65-7.01 30.42-3.36 11.77-0.54 27.32 11.64 18.15 23.59-25.51 14.9-56.64 14.8-83.98 25.13 2.05 6.66 19.95-4.33 22.67 4.79-1.03 6.98-3.88 15.3-11.26 17.67-21.35 4.89-42.35 11.18-63.67 16.21 4.43 7.83 30.04-0.32 27.13 14.92-43.97 25.19-96.61 23.08-145.53 21.16-9.86-1.39-20.99 2.37-29.86-3.29-1.8 7.37-7.65 12.89-11.56 18.12 68.58-2.41 137.35-1.63 205.92-4.67 16.54-5.03 28.48-19 40.66-30.51 33.63-35.07 61.73-76.39 77.25-122.65 26.84-37.98 70.81-65.69 83.49-112.64 0.29-4.3 5.33-17.33-4.21-14.21m-270.04 202.12c-22.25 10.65-47.04 17.29-71.74 17.09-8.54 0.35-14.19-15.47-21.89-7.94-10.99 13.22-38.06 18.52-33.67 39.59 4.16 2.27 3.3-8.35 8.32-8.15 37.28-3.76 72.75-18.18 110.37-19.12 7.13-2.32 8.09 5.73 10.53 9.94 5.34-2.04 6.25-10.3 11.84-12.81 7-5.86 19.28-1.89 25.15-8.27-13.86 3.55-31.75 1.57-38.91-10.33m-155.8 95.04c-4.61-0.41-16.14 1.49-9.18 7.28 38.32 3.82 80.3-0.34 116.57-5.8-35.74-1.46-71.62-2.52-107.39-1.48m146.04 19.06c-36.84 1.61-73 13.16-110.15 8.55-0.51 16.64 22.63 15.89 33.91 14.32 33.47-5.47 67.73-9.67 99.62-21.71-3.78-5.36-16.8-0.05-23.38-1.16z"/>
</svg>
